<svg width="1440" height="584" viewBox="0 0 1440 584" fill="none" xmlns="http://www.w3.org/2000/svg">
<path d="M642.998 484.982C640.756 485.533 639.131 487.038 639.131 487.038L639.355 487.947L643.662 487.681L642.998 484.982Z" fill="#001842"/>
<path d="M642.998 484.982C645.24 484.431 647.377 485.01 647.377 485.01L647.601 485.92L643.662 487.681L642.998 484.982Z" fill="#001842"/>
<path d="M645.492 495.108L644.915 495.25L645.395 497.201L645.972 497.059L645.492 495.108Z" fill="#001842"/>
<path d="M646.339 498.571L646.248 498.594C645.982 498.659 645.713 498.496 645.648 498.231L646.225 498.089L646.344 498.57L646.339 498.571Z" fill="#001842"/>
<path d="M644.025 496.803C643.53 496.924 643.23 497.421 643.351 497.915C643.473 498.409 643.969 498.709 644.463 498.588L646.241 498.151L645.802 496.366L644.025 496.803ZM644.886 498.141C644.571 498.218 644.255 498.027 644.178 497.712C644.1 497.396 644.291 497.08 644.607 497.003C644.922 496.925 645.238 497.116 645.315 497.432C645.392 497.743 645.202 498.063 644.886 498.141Z" fill="#001842"/>
<path d="M645.972 497.064L646.549 496.922L646.069 494.97L645.492 495.112L645.972 497.064Z" fill="#001842"/>
<path d="M646.34 498.571L646.431 498.549C646.697 498.483 646.86 498.214 646.794 497.949L646.217 498.091L646.335 498.572L646.34 498.571Z" fill="#001842"/>
<path d="M647.574 495.93L645.797 496.367L646.236 498.152L648.013 497.715C648.507 497.594 648.808 497.097 648.687 496.603C648.565 496.109 648.069 495.808 647.574 495.93ZM647.768 497.181C647.585 497.226 647.399 497.113 647.354 496.931C647.309 496.748 647.422 496.562 647.604 496.517C647.787 496.472 647.973 496.585 648.018 496.767C648.059 496.951 647.95 497.136 647.768 497.181Z" fill="#001842"/>
<path d="M637.71 494.828L635.124 501.465C635.004 501.768 635.279 502.079 635.594 502.001C635.698 501.976 635.788 501.91 635.84 501.818L639.416 495.91L637.71 494.828Z" fill="#001842"/>
<path d="M652.253 491.252L657.623 495.933C657.869 496.146 657.769 496.549 657.454 496.627C657.35 496.652 657.24 496.635 657.151 496.578L651.245 493.006L652.253 491.252Z" fill="#001842"/>
<path d="M643.41 486.659C637.19 488.189 635.552 490.264 635.552 490.264L637.34 491.445L644.362 490.529L643.41 486.659Z" fill="#001842"/>
<path d="M635.566 493.167C635.566 493.167 637.169 497.894 645.66 495.806L644.472 490.977L635.566 493.167Z" fill="#001842"/>
<path d="M622.055 491.562L619.962 492.077L619.751 491.217C619.609 490.64 619.963 490.056 620.54 489.914C621.117 489.772 621.702 490.126 621.844 490.703L622.055 491.562Z" fill="#001842"/>
<path d="M621 490.549L620.427 490.69L620.052 489.162C620.013 489.004 620.11 488.844 620.268 488.805C620.425 488.766 620.586 488.863 620.625 489.021L621 490.549Z" fill="#001842"/>
<path d="M619.861 489.209L611.412 491.287C610.992 491.39 611.036 492 611.465 492.04C613.206 492.21 616.209 491.978 619.957 489.599L619.861 489.209Z" fill="#001842"/>
<path d="M620.836 488.969L629.285 486.892C629.705 486.789 629.948 487.35 629.587 487.584C628.124 488.542 625.355 489.729 620.932 489.359L620.836 488.969Z" fill="#001842"/>
<path d="M643.41 486.659C649.63 485.13 652.044 486.21 652.044 486.21L651.008 488.085L644.362 490.529L643.41 486.659Z" fill="#001842"/>
<path d="M653.378 488.787C653.378 488.787 654.15 493.718 645.659 495.806L644.472 490.977L653.378 488.787Z" fill="#001842"/>
<path d="M667.887 480.641L667.139 480.825L666.562 480.967L660.01 482.578C657.581 483.175 655.507 484.196 654.271 484.896C652.372 485.966 650.345 486.944 648.198 487.776C646.855 488.296 645.39 488.801 644.02 489.138C642.65 489.475 641.117 489.706 639.687 489.869C637.403 490.126 635.153 490.2 632.971 490.133C631.551 490.09 629.24 490.143 626.811 490.741L620.259 492.352L619.682 492.494L618.934 492.677C618.59 492.762 618.38 493.109 618.465 493.453C618.549 493.798 618.896 494.008 619.241 493.923L619.901 493.761C619.909 493.759 619.917 493.757 619.926 493.754L620.125 493.705C623.025 493.019 628.802 491.462 632.892 492.623C635.287 493.302 639.127 493.859 644.831 492.456C650.54 491.053 653.68 488.779 655.487 487.067C658.568 484.143 664.408 482.844 667.3 482.106L667.499 482.057C667.508 482.055 667.516 482.053 667.524 482.051L668.185 481.889C668.529 481.804 668.739 481.457 668.654 481.113C668.578 480.766 668.231 480.556 667.887 480.641Z" fill="#001842"/>
<path d="M664.609 481.099L666.702 480.585L666.49 479.725C666.349 479.148 665.764 478.794 665.187 478.936C664.61 479.078 664.256 479.662 664.398 480.24L664.609 481.099Z" fill="#001842"/>
<path d="M665.073 479.712L665.646 479.572L665.271 478.044C665.232 477.886 665.071 477.789 664.914 477.828C664.756 477.866 664.659 478.027 664.698 478.184L665.073 479.712Z" fill="#001842"/>
<path d="M665.458 477.998L673.907 475.92C674.326 475.817 674.57 476.378 674.209 476.612C672.745 477.571 669.977 478.758 665.554 478.388L665.458 477.998Z" fill="#001842"/>
<path d="M664.486 478.237L656.037 480.314C655.618 480.417 655.662 481.027 656.09 481.067C657.832 481.238 660.835 481.006 664.582 478.627L664.486 478.237Z" fill="#001842"/>
<path d="M146.163 392.992C143.475 392.992 141.219 394.242 141.219 394.242V395.332L146.163 396.229V392.992Z" fill="#001842"/>
<path d="M146.163 392.992C148.851 392.992 151.107 394.242 151.107 394.242V395.332L146.163 396.229V392.992Z" fill="#001842"/>
<path d="M146.168 405.135H145.476V407.475H146.168V405.135Z" fill="#001842"/>
<path d="M146.163 409.287H146.054C145.735 409.287 145.476 409.028 145.476 408.71H146.168V409.287H146.163Z" fill="#001842"/>
<path d="M144.037 406.644C143.445 406.644 142.967 407.122 142.967 407.714C142.967 408.307 143.445 408.785 144.037 408.785H146.168V406.644H144.037ZM144.64 408.396C144.261 408.396 143.958 408.093 143.958 407.714C143.958 407.336 144.261 407.032 144.64 407.032C145.018 407.032 145.322 407.336 145.322 407.714C145.322 408.088 145.018 408.396 144.64 408.396Z" fill="#001842"/>
<path d="M146.167 407.48H146.859V405.14H146.167V407.48Z" fill="#001842"/>
<path d="M146.164 409.287H146.273C146.592 409.287 146.851 409.028 146.851 408.71H146.159V409.287H146.164Z" fill="#001842"/>
<path d="M148.294 406.644H146.163V408.785H148.294C148.886 408.785 149.364 408.307 149.364 407.714C149.364 407.122 148.886 406.644 148.294 406.644ZM148.164 408.112C147.945 408.112 147.766 407.933 147.766 407.714C147.766 407.495 147.945 407.316 148.164 407.316C148.383 407.316 148.563 407.495 148.563 407.714C148.558 407.933 148.383 408.112 148.164 408.112Z" fill="#001842"/>
<path d="M137.446 402.656L132.676 409.442C132.457 409.75 132.681 410.179 133.059 410.179C133.184 410.179 133.303 410.129 133.388 410.039L139.074 404.354L137.446 402.656Z" fill="#001842"/>
<path d="M154.886 402.656L159.656 409.442C159.875 409.75 159.651 410.179 159.272 410.179C159.148 410.179 159.028 410.129 158.944 410.039L153.258 404.359L154.886 402.656Z" fill="#001842"/>
<path d="M146.164 395.004C138.706 395.004 136.276 396.896 136.276 396.896L137.969 398.728L146.164 399.644V395.004Z" fill="#001842"/>
<path d="M135.484 400.182C135.484 400.182 135.982 405.972 146.163 405.972V400.182H135.484Z" fill="#001842"/>
<path d="M120.653 394.61H118.144V393.58C118.144 392.888 118.706 392.325 119.398 392.325C120.09 392.325 120.653 392.888 120.653 393.58V394.61Z" fill="#001842"/>
<path d="M119.742 393.172H119.055V391.34C119.055 391.15 119.209 390.996 119.398 390.996C119.587 390.996 119.742 391.15 119.742 391.34V393.172Z" fill="#001842"/>
<path d="M118.825 391.34H108.694C108.191 391.34 108.072 392.042 108.545 392.206C110.466 392.883 113.927 393.455 118.825 391.808V391.34Z" fill="#001842"/>
<path d="M119.996 391.34H130.127C130.63 391.34 130.75 392.042 130.277 392.206C128.355 392.883 124.895 393.455 119.996 391.808V391.34Z" fill="#001842"/>
<path d="M146.163 395.004C153.621 395.004 156.05 396.896 156.05 396.896L154.358 398.728L146.163 399.644V395.004Z" fill="#001842"/>
<path d="M156.842 400.182C156.842 400.182 156.344 405.972 146.163 405.972V400.182H156.842Z" fill="#001842"/>
<path d="M175.512 395.004H174.616H173.924H166.068C163.155 395.004 160.526 395.581 158.933 396.029C156.489 396.711 153.925 397.254 151.266 397.598C149.603 397.812 147.806 397.976 146.163 397.976C144.52 397.976 142.723 397.812 141.06 397.598C138.407 397.254 135.843 396.711 133.393 396.029C131.8 395.586 129.171 395.004 126.259 395.004H118.403H117.711H116.814C116.401 395.004 116.068 395.337 116.068 395.751C116.068 396.164 116.401 396.497 116.814 396.497H117.606C117.616 396.497 117.626 396.497 117.636 396.497H117.875C121.345 396.527 128.31 396.373 132.611 398.822C135.131 400.256 139.318 401.954 146.158 401.954C153.004 401.954 157.186 400.256 159.705 398.822C164.001 396.373 170.967 396.527 174.442 396.497H174.681C174.69 396.497 174.7 396.497 174.71 396.497H175.502C175.915 396.497 176.249 396.164 176.249 395.751C176.259 395.337 175.925 395.004 175.512 395.004Z" fill="#001842"/>
<path d="M171.679 394.61H174.188V393.58C174.188 392.888 173.625 392.325 172.933 392.325C172.241 392.325 171.679 392.888 171.679 393.58V394.61Z" fill="#001842"/>
<path d="M172.59 393.172H173.277V391.34C173.277 391.15 173.122 390.996 172.933 390.996C172.744 390.996 172.59 391.15 172.59 391.34V393.172Z" fill="#001842"/>
<path d="M173.501 391.34H183.632C184.135 391.34 184.254 392.042 183.782 392.206C181.86 392.883 178.4 393.455 173.501 391.808V391.34Z" fill="#001842"/>
<path d="M172.335 391.34H162.204C161.701 391.34 161.581 392.042 162.054 392.206C163.976 392.883 167.436 393.455 172.335 391.808V391.34Z" fill="#001842"/>
<path d="M313.698 249.012C312.018 249.418 310.797 250.54 310.797 250.54L310.962 251.221L314.187 251.035L313.698 249.012Z" fill="#001842"/>
<path d="M313.698 249.012C315.377 248.606 316.975 249.047 316.975 249.047L317.14 249.728L314.186 251.035L313.698 249.012Z" fill="#001842"/>
<path d="M315.534 256.599L315.102 256.704L315.455 258.166L315.887 258.061L315.534 256.599Z" fill="#001842"/>
<path d="M316.157 259.194L316.089 259.211C315.89 259.259 315.69 259.136 315.642 258.937L316.074 258.833L316.161 259.193L316.157 259.194Z" fill="#001842"/>
<path d="M314.431 257.864C314.061 257.953 313.834 258.324 313.924 258.694C314.013 259.064 314.384 259.291 314.754 259.201L316.086 258.88L315.763 257.542L314.431 257.864ZM315.072 258.868C314.836 258.925 314.6 258.781 314.543 258.545C314.486 258.308 314.63 258.072 314.866 258.015C315.103 257.958 315.338 258.102 315.395 258.339C315.452 258.572 315.309 258.811 315.072 258.868Z" fill="#001842"/>
<path d="M315.888 258.065L316.32 257.96L315.967 256.498L315.535 256.603L315.888 258.065Z" fill="#001842"/>
<path d="M316.158 259.194L316.226 259.177C316.425 259.129 316.547 258.929 316.499 258.73L316.068 258.834L316.155 259.195L316.158 259.194Z" fill="#001842"/>
<path d="M317.091 257.221L315.759 257.543L316.082 258.88L317.414 258.559C317.784 258.469 318.01 258.098 317.921 257.728C317.832 257.358 317.461 257.131 317.091 257.221ZM317.231 258.158C317.095 258.191 316.955 258.106 316.922 257.969C316.889 257.832 316.974 257.693 317.111 257.66C317.248 257.627 317.387 257.712 317.42 257.849C317.45 257.987 317.368 258.125 317.231 258.158Z" fill="#001842"/>
<path d="M309.709 256.367L307.754 261.328C307.664 261.554 307.868 261.787 308.105 261.73C308.182 261.711 308.25 261.662 308.289 261.593L310.983 257.182L309.709 256.367Z" fill="#001842"/>
<path d="M320.607 253.734L324.612 257.254C324.796 257.413 324.72 257.715 324.484 257.772C324.406 257.791 324.324 257.778 324.258 257.734L319.847 255.043L320.607 253.734Z" fill="#001842"/>
<path d="M314.002 250.269C309.341 251.395 308.109 252.944 308.109 252.944L309.443 253.834L314.702 253.169L314.002 250.269Z" fill="#001842"/>
<path d="M308.11 255.117C308.11 255.117 309.296 258.66 315.658 257.123L314.783 253.505L308.11 255.117Z" fill="#001842"/>
<path d="M298.002 253.876L296.434 254.255L296.278 253.611C296.174 253.178 296.44 252.742 296.873 252.637C297.305 252.533 297.742 252.799 297.846 253.232L298.002 253.876Z" fill="#001842"/>
<path d="M297.215 253.114L296.786 253.218L296.509 252.073C296.48 251.955 296.553 251.835 296.672 251.807C296.79 251.778 296.91 251.851 296.938 251.97L297.215 253.114Z" fill="#001842"/>
<path d="M296.365 252.108L290.034 253.638C289.72 253.714 289.751 254.17 290.072 254.202C291.375 254.335 293.623 254.17 296.436 252.4L296.365 252.108Z" fill="#001842"/>
<path d="M297.096 251.931L303.427 250.401C303.741 250.325 303.922 250.746 303.651 250.92C302.553 251.633 300.477 252.514 297.167 252.224L297.096 251.931Z" fill="#001842"/>
<path d="M314.001 250.269C318.662 249.143 320.466 249.958 320.466 249.958L319.684 251.359L314.702 253.169L314.001 250.269Z" fill="#001842"/>
<path d="M321.456 251.892C321.456 251.892 322.019 255.585 315.657 257.123L314.783 253.505L321.456 251.892Z" fill="#001842"/>
<path d="M332.34 245.837L331.78 245.973L331.348 246.077L326.439 247.263C324.619 247.703 323.063 248.461 322.136 248.982C320.711 249.777 319.191 250.503 317.582 251.119C316.575 251.504 315.477 251.878 314.45 252.126C313.423 252.375 312.275 252.543 311.204 252.661C309.494 252.847 307.81 252.895 306.176 252.839C305.114 252.802 303.383 252.835 301.563 253.275L296.654 254.461L296.222 254.566L295.662 254.701C295.404 254.764 295.246 255.022 295.308 255.281C295.37 255.539 295.629 255.697 295.888 255.635L296.382 255.515C296.388 255.513 296.395 255.512 296.401 255.51L296.55 255.474C298.723 254.969 303.052 253.821 306.11 254.702C307.9 255.217 310.773 255.646 315.048 254.613C319.325 253.579 321.682 251.887 323.04 250.61C325.354 248.431 329.73 247.476 331.897 246.932L332.046 246.896C332.052 246.895 332.059 246.893 332.065 246.892L332.56 246.772C332.818 246.71 332.976 246.451 332.913 246.193C332.857 245.933 332.598 245.775 332.34 245.837Z" fill="#001842"/>
<path d="M329.886 246.17L331.454 245.791L331.298 245.147C331.194 244.715 330.757 244.448 330.325 244.553C329.892 244.657 329.626 245.094 329.73 245.526L329.886 246.17Z" fill="#001842"/>
<path d="M330.237 245.134L330.667 245.03L330.39 243.885C330.361 243.767 330.242 243.694 330.123 243.722C330.005 243.751 329.932 243.871 329.961 243.989L330.237 245.134Z" fill="#001842"/>
<path d="M330.53 243.851L336.861 242.321C337.175 242.245 337.356 242.666 337.085 242.84C335.987 243.553 333.911 244.434 330.601 244.144L330.53 243.851Z" fill="#001842"/>
<path d="M329.803 244.027L323.472 245.557C323.158 245.633 323.189 246.09 323.509 246.121C324.812 246.254 327.061 246.089 329.873 244.32L329.803 244.027Z" fill="#001842"/>
<path d="M1165.84 568.166C1163.44 568.166 1161.43 569.282 1161.43 569.282V570.255L1165.84 571.055V568.166Z" fill="#001842"/>
<path d="M1165.84 568.166C1168.24 568.166 1170.26 569.282 1170.26 569.282V570.255L1165.84 571.055V568.166Z" fill="#001842"/>
<path d="M1165.85 579.008H1165.23V581.097H1165.85V579.008Z" fill="#001842"/>
<path d="M1165.84 582.715H1165.74C1165.46 582.715 1165.23 582.484 1165.23 582.199H1165.85V582.715H1165.84Z" fill="#001842"/>
<path d="M1163.94 580.354C1163.41 580.354 1162.99 580.781 1162.99 581.31C1162.99 581.839 1163.41 582.266 1163.94 582.266H1165.85V580.354H1163.94ZM1164.48 581.919C1164.14 581.919 1163.87 581.648 1163.87 581.31C1163.87 580.972 1164.14 580.701 1164.48 580.701C1164.82 580.701 1165.09 580.972 1165.09 581.31C1165.09 581.643 1164.82 581.919 1164.48 581.919Z" fill="#001842"/>
<path d="M1165.84 581.101H1166.46V579.012H1165.84V581.101Z" fill="#001842"/>
<path d="M1165.84 582.715H1165.94C1166.22 582.715 1166.45 582.484 1166.45 582.199H1165.84V582.715H1165.84Z" fill="#001842"/>
<path d="M1167.74 580.354H1165.84V582.266H1167.74C1168.27 582.266 1168.7 581.839 1168.7 581.31C1168.7 580.781 1168.27 580.354 1167.74 580.354ZM1167.63 581.666C1167.43 581.666 1167.27 581.506 1167.27 581.31C1167.27 581.114 1167.43 580.954 1167.63 580.954C1167.82 580.954 1167.98 581.114 1167.98 581.31C1167.98 581.506 1167.82 581.666 1167.63 581.666Z" fill="#001842"/>
<path d="M1158.06 576.794L1153.8 582.852C1153.6 583.128 1153.8 583.51 1154.14 583.51C1154.25 583.51 1154.36 583.466 1154.44 583.386L1159.51 578.309L1158.06 576.794Z" fill="#001842"/>
<path d="M1173.63 576.794L1177.89 582.852C1178.08 583.128 1177.88 583.51 1177.55 583.51C1177.43 583.51 1177.33 583.466 1177.25 583.386L1172.18 578.314L1173.63 576.794Z" fill="#001842"/>
<path d="M1165.84 569.962C1159.18 569.962 1157.01 571.651 1157.01 571.651L1158.53 573.287L1165.84 574.104V569.962Z" fill="#001842"/>
<path d="M1156.31 574.585C1156.31 574.585 1156.75 579.754 1165.84 579.754V574.585H1156.31Z" fill="#001842"/>
<path d="M1143.06 569.61H1140.82V568.69C1140.82 568.072 1141.33 567.57 1141.94 567.57C1142.56 567.57 1143.06 568.072 1143.06 568.69V569.61Z" fill="#001842"/>
<path d="M1142.25 568.326H1141.64V566.69C1141.64 566.521 1141.78 566.383 1141.94 566.383C1142.11 566.383 1142.25 566.521 1142.25 566.69V568.326Z" fill="#001842"/>
<path d="M1141.43 566.69H1132.39C1131.94 566.69 1131.83 567.317 1132.25 567.463C1133.97 568.068 1137.06 568.579 1141.43 567.108V566.69Z" fill="#001842"/>
<path d="M1142.48 566.69H1151.52C1151.97 566.69 1152.08 567.317 1151.66 567.463C1149.94 568.068 1146.85 568.579 1142.48 567.108V566.69Z" fill="#001842"/>
<path d="M1165.84 569.962C1172.5 569.962 1174.67 571.651 1174.67 571.651L1173.16 573.287L1165.84 574.104V569.962Z" fill="#001842"/>
<path d="M1175.38 574.585C1175.38 574.585 1174.93 579.754 1165.84 579.754V574.585H1175.38Z" fill="#001842"/>
<path d="M1192.05 569.962H1191.25H1190.63H1183.61C1181.01 569.962 1178.67 570.477 1177.24 570.877C1175.06 571.486 1172.77 571.971 1170.4 572.277C1168.91 572.469 1167.31 572.615 1165.84 572.615C1164.37 572.615 1162.77 572.469 1161.29 572.277C1158.92 571.971 1156.63 571.486 1154.44 570.877C1153.02 570.482 1150.67 569.962 1148.07 569.962H1141.06H1140.44H1139.64C1139.27 569.962 1138.97 570.259 1138.97 570.628C1138.97 570.997 1139.27 571.295 1139.64 571.295H1140.34C1140.35 571.295 1140.36 571.295 1140.37 571.295H1140.58C1143.68 571.322 1149.9 571.184 1153.74 573.371C1155.99 574.651 1159.73 576.167 1165.84 576.167C1171.95 576.167 1175.68 574.651 1177.93 573.371C1181.77 571.184 1187.99 571.322 1191.09 571.295H1191.3C1191.31 571.295 1191.32 571.295 1191.33 571.295H1192.04C1192.41 571.295 1192.7 570.997 1192.7 570.628C1192.71 570.259 1192.41 569.962 1192.05 569.962Z" fill="#001842"/>
<path d="M1188.62 569.61H1190.86V568.69C1190.86 568.072 1190.36 567.57 1189.74 567.57C1189.13 567.57 1188.62 568.072 1188.62 568.69V569.61Z" fill="#001842"/>
<path d="M1189.44 568.326H1190.05V566.69C1190.05 566.521 1189.91 566.383 1189.74 566.383C1189.57 566.383 1189.44 566.521 1189.44 566.69V568.326Z" fill="#001842"/>
<path d="M1190.25 566.69H1199.3C1199.74 566.69 1199.85 567.317 1199.43 567.463C1197.71 568.068 1194.62 568.579 1190.25 567.108V566.69Z" fill="#001842"/>
<path d="M1189.21 566.69H1180.16C1179.71 566.69 1179.61 567.317 1180.03 567.463C1181.75 568.068 1184.84 568.579 1189.21 567.108V566.69Z" fill="#001842"/>
<path d="M-208.233 22.6659C-135.67 91.2422 332.781 317.265 713.454 345.015C1094.13 372.765 1486.31 301.229 1529.5 230.168" stroke="#001842" stroke-width="2"/>
<path d="M-187.997 1.02522C-120.658 74.7372 329.96 334.499 707.574 390.086C1085.19 445.673 1481.56 403.084 1529.85 335.381" stroke="#001842" stroke-width="2"/>
</svg>
