<svg width="1438" height="511" viewBox="0 0 1438 511" fill="none" xmlns="http://www.w3.org/2000/svg">
<path fill-rule="evenodd" clip-rule="evenodd" d="M228.442 447.076V184.963H228.564H230.433H244.312V183.801V179.612V172.609V168.42V161.417V157.228V150.225V146.036V139.033V137.474C244.312 137.474 244.189 135.333 244.312 132.122V131.939C244.588 125.793 245.874 115.824 250.96 109.096C257.363 100.657 262.878 96.4673 263.46 96.0392C263.552 95.9781 263.583 95.9475 263.583 95.9475L279.483 86.2234C279.483 86.2234 293.607 76.4993 303.227 69.1909V69.1603H303.257C303.642 68.8676 304.022 68.5799 304.396 68.2969C306.287 66.8652 308.019 65.5544 309.324 64.3288C316.83 57.2651 320.475 50.1708 321.823 46.593C321.851 46.5106 321.878 46.4219 321.909 46.3243C321.946 46.2048 321.987 46.0718 322.038 45.9203V45.8897C323.171 42.0979 325.5 29.6828 327.43 18.7356V18.6744C329.176 8.88914 330.616 0.296449 330.616 0.296449V0.204712H332.546V48.2137H332.577V52.2807V85.8564V94.0516V96.0087V97.1401V101.36V105.549V106.467V107.506V112.063V112.521V113.102V116.711V117.659V118.698V120.319V123.713V127.903V131.97V132.336V133.009V134.905V137.535V138.544V139.094V146.097V150.286V157.289V161.478V168.481V172.67V179.673V183.862V190.865V195.054V201.812V202.026V206.215V213.218V217.407V224.41V228.599V235.602V239.791V246.763V250.952V257.955V262.144V269.147V273.336V280.339V284.528V291.531V295.72V302.723V306.912V313.914V318.104V325.106V329.234V336.237V340.426V347.429V351.618V358.621V362.81V369.813V374.002V381.005V385.194V392.166V396.355V403.358V407.547V414.55V418.495V418.739V422.286V425.742V429.717V429.962V433.509V436.964V440.909V441.154V444.701V447.076H366.918V430.582V429.743V427.224V426.411V423.893V423.053V420.534V419.695V417.176V416.336V413.818V412.978V410.459V409.62V407.101V406.262V403.77V402.903V400.412V399.572V397.053V396.214V393.695V392.855V390.337V389.497V386.978V386.139V383.647V382.808V380.262V379.422V376.904V376.091V373.572V372.733V370.214V369.374V366.856V366.016V363.497V362.658V360.139V359.299V356.781V355.968V353.422V352.61V350.091V349.252V346.733V345.893V343.375V342.535V340.016V339.177V336.658V335.818V333.3V332.487V329.941V329.129V326.61V325.771V323.252V322.412V319.894V319.054V316.535V315.696V313.177V312.337V309.819V308.979V306.487V305.648V303.129V302.29V299.771V298.931V296.413V295.573V293.054V292.215V289.696V288.856V286.338V285.498V283.006V282.167V279.648V278.809V276.29V275.45V272.931V272.092V269.573V268.734V266.215V265.375V262.857V262.017V259.525V258.686V256.167V255.327V252.809V251.969V249.45V248.611V246.092V245.253V242.734V241.894V239.376V238.536V236.044V235.205V232.686V231.846V229.328V228.488V225.969V225.13V222.611V221.772V219.253V218.413V215.894V215.055V212.563V211.724V209.205V208.365V205.847V205.007V202.488V201.649V199.13V198.29V195.772V194.932V192.413V191.574V189.055V188.216V185.724V184.884V182.366V181.526V179.007V178.168V175.649V174.809V172.291V171.451V168.932V168.093V165.574V164.735V162.243V161.403H365.536V158.939H366.918V158.885V158.045H365.536V155.607H366.918V155.526V154.687H365.536V152.249H366.918V152.168V151.328H365.536V148.891H366.918V148.81V147.97H365.536V145.533H366.918V145.451V144.612H365.536V142.174H366.918V142.093V141.281H365.536V138.816H366.918V138.762V137.922H365.536V135.458H366.918V135.404V134.564H365.536V132.126H366.918V132.045V131.206H365.536V128.768H366.918V128.687V127.847V125.329V124.489V121.97V121.131V119.479H368.272H368.299H369.138H370.818V119.397H371.657V119.479H373.336H374.176H375.097V117.366H375.043V116.527H375.097V114.008H375.043V113.168H375.097V110.65H375.043V109.81H375.097V107.291H375.043V106.452H375.097V105.883H376.776H377.616H380.026V93.8851H381.624H383.168V93.0455H383.222V92.3143H383.899H384.738H385.09V90.5268V89.6872V87.1685V86.3289V83.8102V82.9706V81.454H387.582H388.422H390.967V92.3143H391.428H392.24H392.863V93.0455V93.8851H394.407H396.059V105.883H398.551H399.39H400.988V119.479H399.39H398.551H397.928V119.56H401.042H401.936H402.803H404.455V119.479H405.294V119.56H406.974H407.813H407.84H409.194H409.221V121.212V122.052V124.57V125.41V127.929V128.768V131.26V132.126V134.618V135.458V137.976V138.816V141.335V142.174V144.693V145.533V148.051V148.891V151.41V152.249V154.768V155.607V158.099V158.939V161.457V162.297V164.816V165.655V168.174V169.014V171.532V172.372V174.891V175.73V178.222V179.061V181.58H413.013H413.69H417.076H419.107H419.919H420.948H421.598H422.6H423.278H424.28H424.93H425.959H426.636H427.638H428.288H429.317H429.967H430.996H431.646H432.675H433.325H434.355H435.005H436.034H436.684H437.713H438.363H439.392H440.042H441.071H441.721H442.723H443.4H444.429H445.08H446.082H446.732H447.761H448.411H449.44H449.982H450.09H453.367H454.044H457.836V179.061V178.222V175.73V174.891V172.372V171.532V169.014V168.174V165.655V164.816V162.297V161.457V158.939V158.099V155.607V154.768V152.249V151.41V148.891V148.051V145.533V144.693V142.174V141.335V138.816V137.976V135.458V134.618V132.126V131.26V128.768V127.929V125.41V124.57V122.052V121.212V119.56H457.863H459.19H459.217H460.056H461.736V119.479H462.575V119.56H464.254H465.094H466.015H469.129V119.479H468.506H467.667H466.042V105.883H467.667H468.506H470.998V93.8851H472.65H474.194V93.0455V92.3143H474.79H475.629H476.062V81.454H478.608H479.448H481.94V86.3289V87.1685V89.6872V90.5268V92.3143H482.319H483.158H483.835V93.0455H483.862V93.8851H485.433H487.031V105.883H489.442H490.281H491.96V106.452H491.987V107.291H491.96V109.81H491.987V110.65H491.96V113.168H491.987V114.008H491.96V116.527H491.987V117.366H491.96V119.479H492.881H493.721H495.373V119.397H496.212V119.479H497.892H498.731H498.758H500.112H500.139V121.131V121.97V124.489V125.329V127.847V128.687V128.768H501.494V131.206H500.139V132.045V132.126H501.494V134.564H500.139V135.404V135.458H501.494V137.922H500.139V138.762V138.816H501.494V141.281H500.139V142.093V142.174H501.494V144.612H500.139V145.451V145.533H501.494V147.97H500.139V148.81V148.891H501.494V151.328H500.139V152.168V152.249H501.494V154.687H500.139V155.526V155.607H501.494V158.045H500.139V158.885V158.939H501.494V161.403H500.139V162.243V164.735V165.574V168.093V168.932V171.451V172.291V174.809V175.649V178.168V179.007V181.526V182.366V184.884V185.724V188.216V189.055V191.574V192.413V194.932V195.772V198.29V199.13V201.649V202.488V205.007V205.847V208.365V209.205V211.724V212.563V215.055V215.894V218.413V219.253V221.772V222.611V225.13V225.969V228.488V229.328V231.846V232.686V235.205V236.044V238.536V239.376V241.894V242.734V245.253V246.092V248.611V249.45V251.969V252.809V255.327V256.167V258.686V259.525V262.017V262.857V265.375V266.215V268.734V269.573V272.092V272.931V275.45V276.29V278.809V279.648V282.167V283.006V285.498V286.338V288.856V289.696V292.215V293.054V295.573V296.413V298.931V299.771V302.29V303.129V305.648V306.487V308.979V309.819V312.337V313.177V315.696V316.535V319.054V319.894V322.412V323.252V325.771V326.61V329.129V329.941V332.487V333.3V335.818V336.658V339.177V340.016V342.535V343.375V345.893V346.733V349.252V350.091V352.61V353.422V355.968V356.781V359.299V360.139V362.658V363.497V366.016V366.856V369.374V370.214V372.733V373.572V376.091V376.904V379.422V380.262V382.808V383.647V386.139V386.978V389.497V390.337V392.855V393.695V396.214V397.053V399.572V400.412V402.903V403.77V406.262V407.101V409.62V410.459V412.978V413.818V416.336V417.176V419.695V420.534V423.053V423.893V426.411V427.224V429.743V430.582V447.076H536.084L537.704 196.693V195.447H532.179V190.897V190.572V190.057V188.838V188.324H537.758L537.785 182.095V181.553H532.802L529.335 174.674L528.36 172.562L525.327 165.98V161.105V159.101H536.025V157.26V155.635H530.662V153.983H530.635V151.951H530.662H540.791L540.899 146.318L541.089 133.074L541.197 125.545C540.114 125.383 539.274 124.489 539.274 123.379C539.274 122.241 540.141 121.347 541.252 121.212L541.604 97.1893H541.306L541.468 85.4352H541.766L541.956 71.9749L542.091 61.1958H542.118L542.497 35.4398H544.339V35.4127H546.181L546.208 37.6065L546.533 59.4084L546.56 61.1688H546.587L546.695 70.8916L546.912 85.4081H547.21L547.399 97.1622V97.1893H547.102L547.508 124.57C549.024 124.624 550.27 125.87 550.27 127.441C550.27 128.958 549.079 130.176 547.589 130.285L547.724 141.497L547.887 151.924H558.016H558.043V151.951V153.928V153.955H558.016V155.58V155.608H552.654V157.232V159.02H563.433V159.047V161.051V161.078V165.926V165.953L562.512 168.337L560.508 173.509L560.074 174.647L556.608 181.526H551.651V184.451L551.679 188.243H556.608V188.27V188.513V188.784V190.03V190.301V190.545V190.87V195.393V195.42H551.733V195.474L551.787 203.084L553.304 435.132L553.379 447.076H573.995V377.987H571.368V372.137H636.232V370.133V367.966V363.362H658.169C658.332 331.973 683.546 305.865 716.858 300.123V299.283V297.767H729.642V284.442H730.319H731.673V297.767H744.456V299.283V300.123C777.768 305.865 802.955 331.973 803.145 363.362H825.082V367.966V370.133V372.137H981.569V373.274H1018.21V371.297V368.102V365.908V362.712V360.518V357.323V355.129V351.933V349.739V346.543V344.35V341.723H1016.42V338.689H1018.21H1020.92C1020.3 337.064 1019.92 335.25 1019.92 333.3C1019.92 326.881 1023.71 321.708 1028.5 321.329V318.648H1029.56V321.329C1034.33 321.708 1038.15 326.881 1038.15 333.3C1038.15 335.25 1037.77 337.064 1037.14 338.689H1039.82H1041.64V341.723H1039.82V344.35V346.543V349.739V351.933V355.129V357.323V360.518V362.712V365.908V368.102V371.297V373.274H1054.45V377.554H1052.2V428.47H1204V299.256V296.25H1202.46V293.244H1203.49V290.861H1201.48V287.854H1208.61V238.346L1210.99 211.29L1211.96 208.745L1212.94 211.29L1215.89 238.346V287.827H1224.12V290.834H1221.74V293.217H1223.18V296.223H1221.23V302.913V305.079V305.81V306.542V318.404V319.135V320.842V324.498V328.127V331.729V332.46V345.054V345.785V346.083V349.712V358.379V359.11V362.279V365.962V371.758V372.489V378.502V382.131V385.083V385.814V391.745V392.476V394.697V398.326V398.408V399.139V405.07V405.801V410.866V414.495V418.395V419.099V428.361V428.47H1225.99V432.424H1223.69V436.297V438.599V439.438H1223.53V443.257H1223.69V446.399H1223.53V447.076H1228.16V430.555V429.743V427.224V426.384V423.866V423.026V420.507V419.668V417.149V416.309V413.791V412.951V410.459V409.593V407.101V406.235V403.743V402.876V400.385V399.545V397.026V396.187V393.668V392.828V390.31V389.47V386.951V386.112V383.62V382.781V380.235V379.422V376.904V376.064V373.545V372.706V370.187V369.347V366.829V365.989V363.47V362.631V360.112V359.299V356.781V355.941V353.422V352.583V350.064V349.225V346.706V345.866V343.348V342.508V339.989V339.15V336.658V335.818V333.3V332.46V329.941V329.102V326.583V325.744V323.225V322.385V319.866V319.027V316.508V315.669V313.15V312.337V309.819V308.979V306.46V305.621V303.102V302.262V299.744V298.904V296.385V295.546V293.027V292.188V289.696V288.829V286.338V285.498V282.979V282.14V279.621V278.781V276.263V275.423V272.904V272.065V269.546V268.707V266.215V265.348V262.857V262.017V259.498V258.659V256.14V255.3V252.782V251.942V249.423V248.584V246.065V245.225V242.707V241.894V239.376V238.536V236.017V235.178V232.659V231.819V229.301V228.461V225.942V225.103V222.584V221.744V219.226V218.386V215.894V215.055V212.536V211.697V209.178V208.338V205.82V204.98V202.461V201.622V199.103V198.263V195.745V194.905V192.413V191.574V189.055V188.216V185.697V184.857V182.339V181.499V178.98V178.141V175.622V174.782V172.264V171.424V168.905V168.093V165.574V164.735V162.216V161.376H1226.78V158.939H1228.16V158.857V158.018H1226.78V155.58H1228.16V155.499V154.66H1226.78V152.222H1228.16V152.141V151.301H1226.78V148.864H1228.16V148.783V147.943H1226.78V145.506H1228.16V145.424V144.585H1226.78V142.147H1228.16V142.093V141.253H1226.78V138.789H1228.16V138.735V137.895H1226.78V135.458H1228.16V135.376V134.537H1226.78V132.099H1228.16V132.018V131.179H1226.78V128.741H1228.16V128.66V127.82V125.302V124.462V121.943V121.104V119.452H1228.19H1229.54H1229.57H1230.38H1232.06V119.397H1232.9V119.452H1234.58H1235.42H1236.34V117.339H1236.29V116.5H1236.34V113.981H1236.29V113.141H1236.34V110.622H1236.29V109.81H1236.34V107.291H1236.29V106.452H1236.34V105.883H1238.02H1238.86H1241.27V93.858H1242.87H1244.41V93.0185H1244.46V92.2872H1245.14H1245.98H1246.36V90.4997V89.6602V87.1414V86.3019V83.8102V82.9706V81.454H1248.85H1249.66H1252.21V92.2872H1252.67H1253.51H1254.11V93.0185V93.858H1255.65H1257.3V105.883H1259.79H1260.63H1262.23V119.452H1260.63H1259.79H1259.17V119.533H1262.28H1263.21H1264.05H1265.7V119.452H1266.56V119.533H1268.24H1269.06H1269.08H1270.44H1270.46V121.185V122.024V124.543V125.383V127.901V128.741V131.26V132.099V134.618V135.458V137.949V138.789V141.308V142.147V144.666V145.506V148.024V148.864V151.383V152.222V154.741V155.58V158.099V158.939V161.43V162.27V164.789V165.628V168.147V168.987V171.505V172.345V174.864V175.703V178.222V179.061V181.58H1274.26H1274.93H1278.32H1280.38H1281.16H1282.19H1282.84H1283.87H1284.52H1285.52H1286.2H1287.23H1287.88H1288.88H1289.56H1290.56H1291.24H1292.24H1292.89H1293.92H1294.57H1295.6H1296.25H1297.28H1297.93H1298.96H1299.61H1300.63H1301.28H1302.31H1302.96H1303.99H1304.64H1305.67H1306.32H1307.35H1308H1309.03H1309.68H1310.68H1311.22H1311.36H1314.61H1315.29H1319.08V179.061V178.222V175.703V174.864V172.345V171.505V168.987V168.147V165.628V164.789V162.27V161.43V158.939V158.099V155.58V154.741V152.222V151.383V148.864V148.024V145.506V144.666V142.147V141.308V138.789V137.949V135.458V134.618V132.099V131.26V128.741V127.901V125.383V124.543V122.024V121.185V119.533H1319.11H1320.46H1320.49H1321.33H1322.98V119.452H1323.82V119.533H1325.5H1326.34H1327.26H1330.37V119.452H1329.75H1328.91H1327.31V105.883H1328.91H1329.75H1332.24V93.858H1333.89H1335.44V93.0185V92.2872H1336.03H1336.87H1337.33V81.454H1339.88H1340.69H1343.18V86.3019V87.1414V89.6602V90.4997V92.2872H1343.56H1344.4H1345.08V93.0185H1345.13V93.858H1346.68H1348.27V105.883H1350.68H1351.52H1353.2V106.452H1353.26V107.291H1353.2V109.81H1353.26V110.622H1353.2V113.141H1353.26V113.981H1353.2V116.5H1353.26V117.339H1353.2V119.452H1354.12H1354.96H1356.64V119.397H1357.48V119.452H1359.16H1360H1361.35H1361.38V121.104V121.943V124.462V125.302V127.82V128.66V128.741H1362.76V131.179H1361.38V132.018V132.099H1362.76V134.537H1361.38V135.376V135.458H1362.76V137.895H1361.38V138.735V138.789H1362.76V141.253H1361.38V142.093V142.147H1362.76V144.585H1361.38V145.424V145.506H1362.76V147.943H1361.38V148.783V148.864H1362.76V151.301H1361.38V152.141V152.222H1362.76V154.66H1361.38V155.499V155.58H1362.76V158.018H1361.38V158.857V158.939H1362.76V161.376H1361.38V162.216V164.735V165.574V168.093V168.905V171.424V172.264V174.782V175.622V178.141V178.98V181.499V182.339V184.857V185.697V188.216V189.055V191.574V192.413V194.905V195.745V198.263V199.103V201.622V202.461V204.98V205.82V208.338V209.178V211.697V212.536V215.055V215.894V218.386V219.226V221.744V222.584V225.103V225.942V228.461V229.301V231.819V232.659V235.178V236.017V238.536V239.376V241.894V242.707V245.225V246.065V248.584V249.423V251.942V252.782V255.3V256.14V258.659V259.498V262.017V262.857V265.348V266.215V268.707V269.546V272.065V272.904V275.423V276.263V278.781V279.621V282.14V282.979V285.498V286.338V288.829V289.696V292.188V293.027V295.546V296.385V298.904V299.744V302.262V303.102V305.621V306.46V308.979V309.819V312.337V313.15V315.669V316.508V319.027V319.866V322.385V323.225V325.744V326.583V329.102V329.941V332.46V333.3V335.818V336.658V339.15V339.989V342.508V343.348V345.866V346.706V349.225V350.064V352.583V353.422V355.941V356.781V359.299V360.112V362.631V363.47V365.989V366.829V369.347V370.187V372.706V373.545V376.064V376.904V379.422V380.235V382.781V383.62V386.112V386.951V389.47V390.31V392.828V393.668V396.187V397.026V399.545V400.385V402.876V403.743V406.235V407.101V409.593V410.459V412.951V413.791V416.309V417.149V419.668V420.507V423.026V423.866V426.384V427.224V429.743V430.555V447.076H1393.56V444.828V444.097V441.632V440.901V438.436V437.868V435.403V434.834V432.37V431.178V428.714V427.982V425.518V424.786V422.322V421.753V419.289V418.72V416.255V411.434C1393.45 411.407 1393.37 411.353 1393.26 411.353C1393.02 411.353 1392.77 411.407 1392.55 411.489V410.595H1391.66V410.568V410.107V390.337L1395.91 369.049V318.864V318.404H1395.83V317.185H1395.7V314.233H1395.1V312.337V310.442H1393.12V304.158V300.827V299.608V299.175V295.627V295.194V293.975V292.161V290.183H1392.28V288.883H1392.72L1396.51 264.102L1396.81 262.071V262.017H1396.92V259.661V259.58H1396.48V259.363C1396.4 259.336 1396.32 259.255 1396.32 259.146V259.011C1396.32 258.902 1396.4 258.848 1396.48 258.794V258.577H1397.19H1397.92V258.74C1397.93 258.74 1397.93 258.743 1397.94 258.748C1397.94 258.756 1397.94 258.767 1397.94 258.767C1398.05 258.794 1398.13 258.902 1398.13 259.011V259.146C1398.13 259.282 1398.05 259.363 1397.94 259.39C1397.93 259.39 1397.92 259.396 1397.92 259.403C1397.92 259.41 1397.92 259.417 1397.92 259.417V259.58H1397.46V260.907V261.99H1397.54V262.044L1399.27 273.284H1399.24L1400.35 280.515L1401.55 288.288L1404.42 276.182L1410.46 250.696L1413.25 238.807H1413.3H1413.63V233.851V233.688H1412.27V233.282C1411.97 233.201 1411.73 232.984 1411.73 232.659C1411.73 232.334 1411.97 232.117 1412.27 232.036V231.63H1414.28V228.407H1411.13L1412.35 226.701L1411.13 224.994H1414.28H1414.55H1414.82V231.603H1416.9V231.955H1416.93C1417.31 231.955 1417.61 232.253 1417.61 232.632C1417.61 233.011 1417.31 233.309 1416.93 233.309H1416.9V233.661H1415.47V236.424V238.807H1415.76H1415.79L1421.34 261.99H1421.26L1426.95 286.013L1427.6 286.771L1431.07 263.994L1431.36 262.017V261.963H1431.47V259.607V259.525H1431.04V259.336C1431.03 259.336 1431.02 259.331 1431.02 259.325C1431.01 259.317 1431.01 259.309 1431.01 259.309C1430.93 259.255 1430.88 259.2 1430.88 259.092V258.957C1430.88 258.914 1430.89 258.88 1430.9 258.851C1430.92 258.806 1430.96 258.773 1431.01 258.74C1431.04 258.74 1431.04 258.713 1431.04 258.713V258.523H1431.74H1432.48V258.686H1432.5C1432.5 258.713 1432.53 258.713 1432.53 258.713C1432.53 258.74 1432.56 258.74 1432.56 258.74H1432.58L1432.61 258.767L1432.64 258.794V258.821V258.848V258.875V258.902V258.957V259.092V259.146V259.173V259.2V259.227V259.255L1432.61 259.282L1432.58 259.309H1432.56C1432.56 259.32 1432.55 259.327 1432.55 259.331C1432.54 259.336 1432.53 259.336 1432.53 259.336C1432.53 259.347 1432.52 259.354 1432.52 259.358C1432.51 259.363 1432.5 259.363 1432.5 259.363H1432.48V259.525H1432.01V260.852V261.936H1432.1V261.99L1433.83 273.229H1433.8L1434.78 279.567L1436.19 288.802H1436.62V290.102H1435.78V292.079V293.894V294.436V295.086V295.519V299.067V299.5V300.719V304.05V310.333H1433.8V312.229V314.125H1433.29V317.077H1433.15V318.296H1433.02V318.756V369.591L1437.19 390.31H1437.13V410.08V410.541V410.568H1436.24V411.462C1436.02 411.38 1435.78 411.326 1435.54 411.326C1435.43 411.326 1435.35 411.353 1435.24 411.38V413.412V447.076H1435.32V654.262H-2.7937V447.076H-0.0912526V426.257H30.4078C27.8211 423.882 25.3503 421.315 22.9954 418.672H22.7251V418.365C21.2195 416.642 19.7524 414.88 18.3626 413.079H17.8993V412.505C4.88897 395.305 -2.7937 373.93 -2.7937 350.755C-2.7937 304.864 27.4351 266.021 69.1686 252.614V256.981V260.275H69.2072V261.616H69.1686V267.094H69.2072V267.936H131.363V256.406V252.078C159.121 260.428 181.899 280.003 194.485 305.477L194.639 305.592C194.639 305.592 200.7 316.164 203.596 333.172C203.635 333.402 203.673 333.641 203.712 333.881C203.75 334.12 203.789 334.36 203.828 334.589C204.175 336.773 204.445 338.995 204.677 341.37C204.754 342.136 204.793 342.902 204.831 343.668C204.947 345.507 205.024 347.422 205.063 349.376L205.071 349.481C205.107 349.939 205.14 350.366 205.14 350.793C205.14 352.9 205.024 355.007 204.909 357.114C203.367 385.188 191.433 409.443 172.527 426.257H211.163V447.076H228.442ZM330.616 12.4669L330.218 48.2137L324.366 48.122C329.238 29.2547 330.524 13.5983 330.616 12.4669ZM327.43 52.2807H330.126C330.034 52.6464 330.016 53.04 329.995 53.4614C329.968 54.0268 329.938 54.6423 329.728 55.308L327.246 52.2807H327.43ZM329.023 57.5403C328.594 58.794 328.073 60.2618 327.43 61.8519V61.8825C326.94 63.1668 326.388 64.5429 325.776 66.0413L322.038 57.2957L327.43 57.4791L329.023 57.5403ZM322.712 52.2807H324.856L327.399 55.5221L322.007 55.5527H320.659C321.517 54.3601 322.16 53.2592 322.712 52.2807ZM311.56 66.4694C314.287 63.809 316.493 61.2404 318.3 58.9164L322.681 69.2215H322.038H308.588C309.66 68.2735 310.672 67.3256 311.56 66.4694ZM322.038 73.2885H322.497C318.944 80.1382 314.532 83.4407 311.928 84.8473L306.995 73.2885H322.038ZM302.828 73.9L307.945 85.8564H286.162C286.162 85.8564 294.802 80.1993 302.828 73.9ZM241.83 190.865H244.312V195.054V195.513H241.83V190.865ZM232.639 190.865H236.99V195.513H232.639V190.865ZM232.639 202.057H236.99V206.735H232.639V202.057ZM232.639 213.218H236.99V217.896H232.639V213.218ZM232.639 224.41H236.99V229.058H232.639V224.41ZM232.639 235.602H236.99V240.28H232.639V235.602ZM232.639 246.794H236.99V251.472H232.639V246.794ZM537.324 190.003V188.784H536.458V190.003H537.324ZM535.591 190.003V188.784H534.724V190.003H535.591ZM533.858 188.784H532.991V190.003H533.858V188.784ZM532.991 190.518V190.843H533.858V190.518H532.991ZM534.724 190.518V190.843H535.591V190.518H534.724ZM536.431 190.518V190.843H537.297V190.518H536.431ZM1210.5 239.024H1211.31V243.059H1210.5V239.024ZM1214 286.229H1213.37V282.194H1214V286.229ZM1214 280.84H1213.37V276.777H1214V280.84ZM1212.75 239.024V243.059H1211.96V239.024H1212.75ZM1211.96 237.669V233.634H1212.75V237.669H1211.96ZM1212.75 244.413V248.448H1211.96V244.413H1212.75ZM1212.75 249.803V253.865H1211.96V249.803H1212.75ZM1212.75 255.192V259.228H1211.96V255.192H1212.75ZM1212.75 260.609V264.671H1211.96V260.609H1212.75ZM1212.75 265.998V270.061H1211.96V265.998H1212.75ZM1212.75 271.388V275.423H1211.96V271.388H1212.75ZM1212.75 276.777V280.84H1211.96V276.777H1212.75ZM1214 275.45H1213.37V271.415H1214V275.45ZM1214 270.034H1213.37V265.971H1214V270.034ZM1214 264.644H1213.37V260.582H1214V264.644ZM1214 259.255H1213.37V255.219H1214V259.255ZM1214 253.865H1213.37V249.803H1214V253.865ZM1214 248.448H1213.37V244.413H1214V248.448ZM1214 243.059H1213.37V239.024H1214V243.059ZM1213.91 237.669H1213.37V233.634H1213.45L1213.91 237.669ZM1212.75 232.28H1211.96V228.217H1212.75V232.28ZM1211.31 232.28H1211.07L1211.31 229.49V232.28ZM1211.31 233.634V237.669H1210.58L1210.96 233.634H1211.31ZM1210.5 244.413H1211.31V248.448H1210.5V244.413ZM1210.5 249.803H1211.31V253.865H1210.5V249.803ZM1210.5 255.192H1211.31V259.228H1210.5V255.192ZM1210.5 260.609H1211.31V264.671H1210.5V260.609ZM1210.5 265.998H1211.31V270.061H1210.5V265.998ZM1210.5 271.388H1211.31V275.423H1210.5V271.388ZM1210.5 276.777H1211.31V280.84H1210.5V276.777ZM1210.5 282.194H1211.31V286.229H1210.5V282.194ZM1211.96 282.194H1212.75V286.229H1211.96V282.194ZM1212.75 287.584V287.827H1211.96V287.584H1212.75ZM1213.37 287.827V287.584H1214V287.827H1213.37ZM1212.72 226.863H1211.96V222.367L1212.07 221.013L1212.72 226.863ZM1210.5 287.584H1211.31V287.827H1210.5V287.584ZM1383.86 295.844V294.408H1384.16L1384.4 295.844H1383.86Z" fill="url(#paint0_linear_214_497)"/>
<defs>
<linearGradient id="paint0_linear_214_497" x1="716.263" y1="447.076" x2="716.263" y2="654.262" gradientUnits="userSpaceOnUse">
<stop stop-color="#001842"/>
<stop offset="1" stop-color="#001842"/>
</linearGradient>
</defs>
</svg>
