<svg width="1438" height="939" viewBox="0 0 1438 939" fill="none" xmlns="http://www.w3.org/2000/svg">
<path fill-rule="evenodd" clip-rule="evenodd" d="M248.046 430.621H194.303V429.982V427.129V426.438V425.775V425.083V422.231V421.539V420.905V420.214V417.361V416.669V416.036V415.344V412.463V411.771V411.137V410.446V407.593V406.901V406.268V405.576V402.695V402.003V401.369V400.678V397.825V397.133V396.499V395.808V392.955V392.235V391.601V390.909V388.057V387.365V386.731V386.04V383.187V382.496V381.833V381.141V378.289V377.597V376.963V376.272V373.419V372.728V372.094V371.373V368.521V367.829V367.195V366.504V363.651V362.959V362.326V361.634V358.753V358.061V357.427V356.736V353.883V353.191V352.557V351.866V348.984V348.293V347.659V346.967V344.115V343.423V342.789V342.098V339.245V338.554V337.891V337.199V334.347V333.655V333.021V332.33V329.477V328.786V328.152V327.431V324.579V323.887V323.253V322.562V319.709V319.017V318.384V317.692V313.946V313.226V312.592V311.9V309.048V308.356V307.722V307.031V304.178V303.487V302.824V302.132V299.28V298.588V297.954V297.263V294.41V293.718V293.085V292.393V288.618V287.927V287.293V286.601V284.642V283.95V283.316V282.625V279.311V278.62V277.986V277.294V274.442V273.721V273.087V272.396V269.543V268.852V268.218V267.526V264.674V263.982V263.319V262.628V259.775V259.084V258.45V257.758V254.905V254.214V253.58V252.86V250.007V249.315V248.682V247.99V245.137V244.446V243.812V243.12V240.239V239.547V238.913V238.222V235.369V234.678V234.044V233.352V230.471V229.779V229.145V228.454V225.601V224.91V224.276V223.584V220.732V220.04V219.377V218.686V215.833V215.142V214.508V213.816V210.963V210.272V209.609V208.918V206.065V205.373V204.74V204.048V201.195V200.504V199.87V199.178V197.853V196.297V195.605V194.971V194.28V194.107H193.81H193.461H192.909H192.532H191.98H191.602H191.05H190.673H190.44V193.963H190.034H189.598V193.617V193.185V191.398V190.966V189.18V188.748V186.961V186.529V185.52H178.591H172.521H170.836H170.4H164.766H162.82V182.524H158.405V175.118H158.609V173.735H158.405V173.332H157.999V173.735H157.796V175.118H157.999V182.524H157.737V178.259H156.808V182.524H154.833V184.742H147.776V185.52H142.954H141.386H140.921H139.062H138.598H136.768H136.303H135.49H134.503V186.529V186.961V188.286V188.748V190.073V190.505V191.831V192.292V193.617V194.049V194.165H133.98V196.787V197.507V200.043V200.763V201.656V202.377V204.941V205.662V206.555V207.275V209.811V210.531V211.424V212.145V214.709V215.43V216.323V217.043V219.579V220.299V221.193V221.913V224.477V225.198V226.062V226.783V229.347V230.067V230.961V231.681V234.246V234.966V235.83V236.551V239.115V239.835V240.729V241.449V243.985V244.705V245.598V246.319V248.883V249.604V250.497V251.217V253.753V254.473V255.366V256.087V258.651V259.372V260.265V260.985V263.521V264.241V265.135V265.855V268.419V269.14V270.004V270.725V273.289V274.009V274.903V275.623V278.187V278.908V279.772V280.493V283.489V284.21V285.103V285.823V288.388V289.108V290.001V290.722V293.257V293.978V294.871V295.591V298.156V298.876V299.769V300.49V303.025V303.746V304.639V305.359V307.924V308.644V309.509V310.229V313.226V313.975V314.839V315.56V318.124V318.845V319.738V320.458V322.994V323.368V324.089V324.982V325.702V328.238V328.958V329.852V330.572V333.137V333.857V334.75V335.471V335.557V338.006V338.093V338.727V339.62V340.34V343.337V344.057V344.95V345.671V348.235V348.927V349.849V350.569V350.627V353.191V353.566V354.258V355.151V355.871V358.436V359.156V360.049V360.77V363.305V364.026V364.919V365.639V365.726V368.204V368.29V368.924V369.817V370.538V373.534V374.255V375.119V375.839V378.404V379.124V380.018V380.738V380.824V383.274V383.36V383.994V384.887V385.608V388.172V388.892V389.786V390.506V393.042V393.762V394.655V395.376V395.462V398.027V398.372V399.093V399.986V400.706V403.271V403.991V404.884V405.605V408.14V408.861V409.754V410.474V410.561V413.039V413.097V413.759V414.624V415.344V418.341V419.061V419.954V420.675V423.239V423.96V424.853V425.573V425.66V428.109V428.195V428.829V429.722V430.443V430.621H91.0824V212.961H81.5899V206.581H68.4552V205.31H39.949V206.581H35.4178V205.31H22.2831V192.29H20.9065V205.31H16.318V206.581H13.9377V212.961H4.4165V430.621H-1V1080.62H1437.11V430.621H1418.15V427.29H1416.26V409.962H1414.62V401.511H1412.69V392.705H1374.84V401.511H1372.91V409.962H1371.26V427.29H1369.41V430.621H1310.3V422.564H1310.25L1308.44 410.239C1308.44 410.214 1308.45 410.19 1308.46 410.166L1308.47 410.15C1308.48 410.131 1308.49 410.112 1308.49 410.093H1308.58C1308.71 410.093 1308.8 409.947 1308.8 409.802V409.414C1308.8 409.402 1308.8 409.39 1308.8 409.378C1308.8 409.36 1308.8 409.342 1308.79 409.325C1308.78 409.295 1308.77 409.266 1308.76 409.241C1308.72 409.171 1308.66 409.123 1308.58 409.123H1308.49C1308.49 409.066 1308.47 409.026 1308.46 408.992C1308.45 408.969 1308.44 408.949 1308.44 408.928V402.378H1308.4L1307.44 395.876L1307.4 395.633V352.738H1307.35L1306.4 344.441V343.616C1306.49 343.616 1306.54 343.519 1306.54 343.422V343.13C1306.54 343.033 1306.49 342.936 1306.4 342.936V325.128H1305.81H1305.72V310.28H1304.95V300.284H1304.54V289.997H1304.32V289.706C1304.45 289.657 1304.54 289.56 1304.54 289.366V289.269C1304.54 289.075 1304.45 288.978 1304.27 288.93V288.444C1304.41 288.396 1304.45 288.299 1304.45 288.153V288.056C1304.45 287.911 1304.36 287.765 1304.23 287.765V287.28C1304.36 287.231 1304.41 287.134 1304.41 286.989V286.892C1304.41 286.746 1304.32 286.6 1304.18 286.6V286.115C1304.32 286.115 1304.41 285.97 1304.41 285.824V285.484C1304.41 285.29 1304.27 285.145 1304.14 285.145V284.66C1304.27 284.611 1304.36 284.514 1304.36 284.368V284.223C1304.36 284.077 1304.27 283.932 1304.14 283.932V283.446C1304.27 283.446 1304.41 283.301 1304.41 283.155V283.01C1304.41 282.816 1304.27 282.719 1304.14 282.719V282.136H1304.63V281.554H1304.14H1303.68V279.273H1303.91V278.691H1303.68V278.06V277.963V277.284C1303.77 277.187 1303.86 277.09 1303.91 276.944H1304.32C1304.54 276.944 1304.77 276.653 1304.77 276.265V276.168C1304.77 275.78 1304.59 275.489 1304.32 275.489H1303.91C1303.86 275.343 1303.77 275.246 1303.68 275.149V274.47C1303.68 274.081 1303.5 273.79 1303.23 273.79H1303.14C1302.91 273.79 1302.69 274.081 1302.69 274.47V275.149C1302.66 275.173 1302.64 275.197 1302.62 275.222C1302.59 275.252 1302.57 275.284 1302.54 275.318C1302.52 275.349 1302.5 275.381 1302.49 275.417C1302.48 275.44 1302.47 275.463 1302.46 275.489H1302.05C1301.83 275.489 1301.6 275.78 1301.6 276.168V276.265C1301.6 276.653 1301.78 276.944 1302.05 276.944H1302.46C1302.51 277.09 1302.6 277.187 1302.69 277.284V277.963V278.06V278.691H1302.46V279.273H1302.69V281.554H1302.28H1301.83V282.136H1302.28L1302.23 282.719H1302.19C1302.05 282.719 1301.92 282.864 1301.92 283.01V283.155C1301.92 283.349 1302.05 283.446 1302.19 283.446H1302.23V283.883C1302.1 283.883 1301.96 284.029 1301.96 284.174V284.32C1301.96 284.465 1302.05 284.611 1302.19 284.611V285.096H1302.14C1302.01 285.096 1301.87 285.242 1301.87 285.436V285.533C1301.87 285.727 1302.01 285.873 1302.14 285.873V286.358C1302.01 286.358 1301.87 286.503 1301.87 286.698V286.795C1301.87 286.94 1301.96 287.086 1302.1 287.086V287.571C1301.96 287.571 1301.87 287.717 1301.87 287.911V288.008C1301.87 288.153 1301.96 288.299 1302.1 288.299V288.784C1301.96 288.784 1301.83 288.93 1301.83 289.124V289.221C1301.83 289.366 1301.92 289.512 1302.05 289.56V289.852H1301.83V300.139H1301.42V301.303L1300.47 298.004V295.044C1300.47 277.478 1295.21 262.436 1287.19 254.09V246.86H1286.78V239.678V238.514V237.398H1286.33V227.45H1286.1V227.159C1286.24 227.111 1286.33 227.014 1286.33 226.868V226.771C1286.33 226.625 1286.19 226.48 1286.06 226.431V225.946C1286.19 225.897 1286.29 225.8 1286.29 225.655V225.558C1286.29 225.412 1286.19 225.267 1286.06 225.267V224.781C1286.19 224.733 1286.29 224.636 1286.29 224.49V224.393C1286.29 224.248 1286.19 224.102 1286.06 224.102V223.665C1286.19 223.665 1286.33 223.52 1286.33 223.374V223.277C1286.33 223.132 1286.19 222.986 1286.06 222.986V222.549C1286.19 222.501 1286.29 222.404 1286.29 222.258V222.113C1286.29 221.967 1286.19 221.821 1286.01 221.821V221.385C1286.15 221.385 1286.29 221.239 1286.29 221.094V220.948C1286.29 220.802 1286.15 220.657 1286.01 220.657V220.075H1286.56V219.541H1286.01H1285.52V217.357H1285.74V216.824H1285.52V216.193V216.096V215.465C1285.61 215.368 1285.7 215.271 1285.74 215.125H1286.19C1286.47 215.125 1286.69 214.834 1286.69 214.446V214.349C1286.69 213.961 1286.47 213.67 1286.19 213.67H1285.74C1285.7 213.524 1285.61 213.427 1285.52 213.33V212.699C1285.52 212.311 1285.29 212.02 1285.02 212.02H1284.93C1284.65 212.02 1284.43 212.311 1284.43 212.699V213.184C1284.34 213.281 1284.25 213.378 1284.2 213.524H1283.75C1283.48 213.524 1283.25 213.815 1283.25 214.203V214.3C1283.25 214.689 1283.48 214.98 1283.75 214.98H1284.2C1284.25 215.125 1284.34 215.222 1284.43 215.319V215.95V216.047V216.678H1284.2V217.212H1284.43V219.395H1283.97H1283.48V219.929H1283.93L1283.88 220.511H1283.79C1283.66 220.511 1283.52 220.657 1283.52 220.802V220.948C1283.52 221.094 1283.66 221.239 1283.79 221.239H1283.84V221.676C1283.7 221.676 1283.57 221.821 1283.57 221.967V222.113C1283.57 222.258 1283.7 222.404 1283.84 222.404V222.84H1283.79C1283.61 222.84 1283.52 222.986 1283.52 223.132V223.229C1283.52 223.423 1283.66 223.52 1283.79 223.52V223.957C1283.66 223.957 1283.52 224.102 1283.52 224.248V224.345C1283.52 224.49 1283.61 224.636 1283.75 224.636V225.073C1283.61 225.073 1283.48 225.218 1283.48 225.364V225.461C1283.48 225.606 1283.57 225.752 1283.7 225.752V226.189C1283.57 226.189 1283.43 226.334 1283.43 226.528V226.625C1283.43 226.771 1283.52 226.916 1283.66 226.916V227.208H1283.43V228.906L1282.34 220.172H1282.84C1283.02 220.172 1283.16 220.026 1283.16 219.832V219.638C1283.16 219.444 1283.02 219.298 1282.84 219.298H1282.25L1281.98 217.018H1282.3C1282.48 217.018 1282.62 216.872 1282.62 216.678V216.484C1282.62 216.29 1282.48 216.144 1282.3 216.144H1281.89L1281.62 213.864H1282.07C1282.25 213.864 1282.39 213.718 1282.39 213.524V213.33C1282.39 213.136 1282.25 212.99 1282.07 212.99H1281.53L1281.3 211.195H1283.2V210.807V210.273V208.963V208.575H1282.62V206.1H1282.43V200.859H1282.34V200.665C1282.39 200.617 1282.43 200.617 1282.43 200.568L1282.43 200.563L1282.43 200.56L1282.43 200.554L1282.43 200.549C1282.43 200.537 1282.42 200.525 1282.42 200.513C1282.39 200.483 1282.35 200.453 1282.3 200.423V200.131C1282.34 200.083 1282.39 200.083 1282.39 200.034V199.937C1282.39 199.889 1282.34 199.84 1282.3 199.84V199.501C1282.32 199.482 1282.33 199.471 1282.35 199.461L1282.35 199.458C1282.36 199.45 1282.37 199.443 1282.38 199.434C1282.38 199.43 1282.39 199.426 1282.39 199.421C1282.39 199.416 1282.39 199.41 1282.39 199.404V199.307C1282.39 199.258 1282.34 199.21 1282.3 199.21V198.918C1282.34 198.918 1282.43 198.87 1282.43 198.773V198.676C1282.43 198.627 1282.42 198.59 1282.4 198.566C1282.38 198.542 1282.34 198.53 1282.3 198.53V198.239C1282.34 198.239 1282.39 198.191 1282.39 198.142V198.045C1282.39 197.996 1282.34 197.948 1282.3 197.948V197.657C1282.34 197.657 1282.43 197.608 1282.43 197.511V197.414C1282.43 197.393 1282.43 197.375 1282.43 197.359C1282.42 197.34 1282.42 197.324 1282.41 197.311C1282.38 197.283 1282.35 197.269 1282.3 197.269V196.977H1282.52V196.686H1282.25H1282.21L1282.03 195.522H1282.12V195.231H1282.03V194.891H1281.98C1281.98 194.883 1281.98 194.876 1281.98 194.87C1281.99 194.863 1281.99 194.858 1282 194.854C1282 194.852 1282 194.85 1282 194.848C1282.01 194.847 1282.01 194.846 1282.01 194.845C1282.01 194.844 1282.02 194.844 1282.02 194.843C1282.02 194.842 1282.03 194.842 1282.03 194.842V194.503C1282.07 194.454 1282.12 194.406 1282.12 194.309H1282.34C1282.48 194.309 1282.57 194.163 1282.57 193.969V193.92C1282.57 193.726 1282.48 193.581 1282.34 193.581H1282.12C1282.07 193.532 1282.07 193.435 1282.03 193.387V193.047C1282.03 192.853 1281.94 192.707 1281.8 192.707H1281.75C1281.62 192.707 1281.53 192.853 1281.53 193.047V193.387C1281.52 193.4 1281.5 193.414 1281.49 193.429C1281.48 193.443 1281.47 193.457 1281.46 193.474C1281.45 193.502 1281.44 193.536 1281.44 193.581H1281.21C1281.08 193.581 1280.98 193.726 1280.98 193.92V193.969C1280.98 194.163 1281.08 194.309 1281.21 194.309H1281.44C1281.48 194.357 1281.48 194.454 1281.53 194.503V194.842C1281.53 194.891 1281.57 194.891 1281.57 194.891H1281.53V195.231H1281.44V195.522H1281.53L1281.35 196.686H1281.12V196.977H1281.35V197.269C1281.26 197.269 1281.21 197.317 1281.21 197.414V197.511C1281.21 197.608 1281.26 197.657 1281.35 197.657V197.899C1281.26 197.899 1281.21 197.948 1281.21 198.045V198.142C1281.21 198.191 1281.26 198.239 1281.35 198.288V198.53C1281.26 198.53 1281.21 198.579 1281.21 198.676V198.773C1281.21 198.815 1281.22 198.849 1281.24 198.872C1281.26 198.903 1281.3 198.918 1281.35 198.918V199.161C1281.3 199.161 1281.21 199.21 1281.21 199.307V199.404C1281.21 199.452 1281.26 199.501 1281.3 199.501V199.792C1281.26 199.792 1281.17 199.84 1281.17 199.937V200.034C1281.17 200.057 1281.18 200.08 1281.19 200.098C1281.21 200.118 1281.23 200.131 1281.26 200.131V200.423C1281.21 200.423 1281.12 200.471 1281.12 200.568V200.665C1281.12 200.714 1281.17 200.762 1281.21 200.811V201.005H1281.12V206.245H1280.94V207.313L1280.76 205.76H1280.98V204.887H1279.53L1279.4 203.625H1279.44L1279.17 201.393H1279.81C1279.99 201.393 1280.12 201.247 1280.12 201.053V200.859C1280.12 200.665 1279.99 200.52 1279.81 200.52H1279.17C1279.15 200.52 1279.14 200.544 1279.13 200.568C1279.12 200.582 1279.11 200.595 1279.11 200.604C1279.1 200.612 1279.09 200.617 1279.08 200.617L1278.99 199.743L1278.81 198.239H1279.26C1279.44 198.239 1279.58 198.093 1279.58 197.899V197.705C1279.58 197.511 1279.44 197.366 1279.26 197.366H1278.72L1278.45 195.085H1278.99C1279.17 195.085 1279.31 194.939 1279.31 194.745V194.551C1279.31 194.357 1279.17 194.212 1278.99 194.212H1278.36L1278.08 191.931H1278.4C1278.58 191.931 1278.72 191.785 1278.72 191.591V191.397C1278.72 191.203 1278.58 191.058 1278.4 191.058H1277.99L1277.72 188.777H1278.13C1278.31 188.777 1278.45 188.631 1278.45 188.437V188.243C1278.45 188.049 1278.31 187.904 1278.13 187.904H1277.63L1277.36 185.623H1277.54C1277.72 185.623 1277.86 185.477 1277.86 185.283V185.089C1277.86 184.895 1277.72 184.749 1277.54 184.749H1277.22L1276.95 182.469H1277.27C1277.45 182.469 1277.59 182.323 1277.59 182.129V181.935C1277.59 181.741 1277.45 181.595 1277.27 181.595H1276.86L1276.59 179.315H1276.68C1276.86 179.315 1277 179.169 1277 178.975V178.781C1277 178.587 1276.86 178.441 1276.68 178.441H1276.5L1276.23 175.918H1276.59V174.996H1276.64V174.268H1275.91V173.832V173.298H1276.09V172.91V172.133V171.454H1275.77V168.154H1275.32V165.971V164.806H1276.73V163.642H1275.86C1276 163.351 1276.09 163.059 1276.09 162.671C1276.09 161.798 1275.64 161.07 1275.05 160.827V159.76H1274.87V158.644H1274.78V156.218H1274.87V154.374H1274.32V156.218H1274.42V158.644H1274.32V159.76H1274.14V160.827C1273.55 161.07 1273.1 161.798 1273.1 162.671C1273.1 163.011 1273.19 163.351 1273.33 163.642H1272.47V164.806H1273.83V165.971V168.154H1273.37V171.454H1273.06V171.842V172.619V173.007H1273.24V173.541V173.977H1272.51V174.511V174.657V175.578H1273.06L1272.78 178.005V178.102H1272.56C1272.38 178.102 1272.24 178.247 1272.24 178.441V178.635C1272.24 178.83 1272.38 178.975 1272.56 178.975H1272.69L1271.83 181.353H1271.42C1271.24 181.353 1271.11 181.498 1271.11 181.692V181.887C1271.11 182.081 1271.24 182.226 1271.42 182.226H1271.74L1271.47 184.507H1271.2C1271.02 184.507 1270.88 184.652 1270.88 184.847V185.041C1270.88 185.235 1271.02 185.38 1271.2 185.38H1271.38L1271.11 187.661H1270.61C1270.43 187.661 1270.29 187.806 1270.29 188.001V188.195C1270.29 188.389 1270.43 188.534 1270.61 188.534H1270.97L1270.7 190.815H1270.34C1270.16 190.815 1270.02 190.96 1270.02 191.155V191.349C1270.02 191.543 1270.16 191.688 1270.34 191.688H1270.61L1270.34 193.969H1269.79C1269.61 193.969 1269.48 194.115 1269.48 194.309V194.503C1269.48 194.697 1269.61 194.842 1269.79 194.842H1270.25L1269.97 197.123H1269.57C1269.39 197.123 1269.25 197.269 1269.25 197.463V197.657C1269.25 197.851 1269.39 197.996 1269.57 197.996H1269.88L1269.61 200.277H1268.98C1268.8 200.277 1268.66 200.423 1268.66 200.617V200.811C1268.66 201.005 1268.8 201.15 1268.98 201.15H1269.48L1269.07 204.644H1268.16V200.762H1268.07V200.568C1268.09 200.55 1268.11 200.538 1268.12 200.529L1268.13 200.525C1268.13 200.521 1268.14 200.517 1268.14 200.513C1268.16 200.531 1268.16 200.55 1268.16 200.568V200.471C1268.16 200.491 1268.16 200.503 1268.14 200.513C1268.12 200.483 1268.08 200.453 1268.03 200.423V200.131C1268.04 200.122 1268.04 200.114 1268.05 200.108C1268.06 200.101 1268.07 200.096 1268.08 200.092C1268.1 200.076 1268.12 200.064 1268.12 200.034V199.937C1268.12 199.91 1268.1 199.882 1268.08 199.863C1268.07 199.849 1268.05 199.84 1268.03 199.84V199.501C1268.05 199.477 1268.07 199.465 1268.09 199.453C1268.09 199.45 1268.1 199.447 1268.1 199.443L1268.1 199.44L1268.11 199.436C1268.11 199.428 1268.12 199.418 1268.12 199.404V199.307C1268.12 199.258 1268.07 199.21 1268.03 199.21V198.918C1268.07 198.918 1268.16 198.87 1268.16 198.773V198.676C1268.16 198.579 1268.12 198.53 1268.03 198.53V198.239C1268.04 198.239 1268.06 198.231 1268.08 198.219C1268.1 198.201 1268.12 198.171 1268.12 198.142V198.045C1268.12 197.996 1268.07 197.948 1268.03 197.948V197.657C1268.07 197.657 1268.16 197.608 1268.16 197.511V197.414C1268.16 197.317 1268.12 197.269 1268.03 197.269V196.977H1268.25V196.686H1267.98H1267.94L1267.75 195.522H1267.85V195.231H1267.75V194.891H1267.71C1267.71 194.87 1267.72 194.858 1267.73 194.852C1267.73 194.848 1267.74 194.846 1267.74 194.845C1267.75 194.842 1267.75 194.842 1267.75 194.842V194.503C1267.8 194.454 1267.85 194.406 1267.85 194.309H1268.07C1268.21 194.309 1268.3 194.163 1268.3 193.969V193.92C1268.3 193.726 1268.21 193.581 1268.07 193.581H1267.85C1267.84 193.578 1267.84 193.576 1267.84 193.573C1267.84 193.57 1267.83 193.567 1267.83 193.564L1267.83 193.558L1267.82 193.55C1267.82 193.542 1267.82 193.534 1267.81 193.526C1267.81 193.508 1267.8 193.488 1267.8 193.469C1267.79 193.438 1267.77 193.408 1267.75 193.387V193.047C1267.75 192.853 1267.66 192.707 1267.53 192.707H1267.48C1267.35 192.707 1267.26 192.853 1267.26 193.047V193.387C1267.21 193.435 1267.17 193.484 1267.17 193.581H1266.94C1266.8 193.581 1266.71 193.726 1266.71 193.92V193.969C1266.71 194.163 1266.8 194.309 1266.94 194.309H1267.17C1267.19 194.33 1267.2 194.362 1267.21 194.394C1267.22 194.434 1267.23 194.476 1267.26 194.503V194.842C1267.26 194.86 1267.26 194.871 1267.27 194.879C1267.28 194.891 1267.3 194.891 1267.3 194.891H1267.26V195.231H1267.17V195.522H1267.26L1267.08 196.686H1266.85V196.977H1267.08V197.269C1266.98 197.269 1266.94 197.317 1266.94 197.414V197.511C1266.94 197.608 1266.98 197.657 1267.08 197.657V197.899C1267.06 197.899 1267.05 197.9 1267.04 197.902C1267.03 197.904 1267.02 197.905 1267.02 197.908C1267.01 197.91 1267 197.913 1267 197.916C1266.99 197.919 1266.99 197.922 1266.98 197.925C1266.98 197.929 1266.98 197.933 1266.97 197.937C1266.95 197.961 1266.94 197.997 1266.94 198.045V198.142C1266.94 198.191 1266.98 198.239 1267.08 198.288V198.53C1267.07 198.53 1267.06 198.531 1267.05 198.531L1267.05 198.532L1267.04 198.533C1267.02 198.537 1267.01 198.542 1266.99 198.551C1266.96 198.574 1266.94 198.615 1266.94 198.676V198.773C1266.94 198.87 1266.98 198.918 1267.08 198.918V199.161C1267.03 199.161 1266.94 199.21 1266.94 199.307V199.404C1266.94 199.452 1266.98 199.501 1267.03 199.501V199.792C1266.98 199.792 1266.89 199.84 1266.89 199.937V200.034C1266.89 200.062 1266.91 200.09 1266.93 200.109C1266.95 200.123 1266.97 200.131 1266.98 200.131V200.423C1266.94 200.423 1266.85 200.471 1266.85 200.568V200.665C1266.85 200.714 1266.89 200.762 1266.94 200.811V201.005H1266.85V206.245H1266.67V208.72H1265.76V209.108V210.418V210.952V211.34H1267.35L1267.12 213.136H1266.67C1266.49 213.136 1266.35 213.281 1266.35 213.475V213.67C1266.35 213.864 1266.49 214.009 1266.67 214.009H1267.03L1266.76 216.29H1266.44C1266.26 216.29 1266.12 216.435 1266.12 216.629V216.824C1266.12 217.018 1266.26 217.163 1266.44 217.163H1266.67L1266.4 219.444H1265.9C1265.72 219.444 1265.58 219.589 1265.58 219.784V219.978C1265.58 220.172 1265.72 220.317 1265.9 220.317H1266.26L1265.17 229.149H1265.04V227.402H1264.81V227.111C1264.95 227.062 1265.04 226.965 1265.04 226.819V226.771C1265.04 226.625 1264.9 226.48 1264.76 226.431V225.946C1264.9 225.897 1264.99 225.8 1264.99 225.655V225.558C1264.99 225.412 1264.9 225.267 1264.76 225.267V224.781C1264.9 224.733 1264.99 224.636 1264.99 224.49V224.393C1264.99 224.248 1264.9 224.102 1264.76 224.102V223.665C1264.9 223.665 1265.04 223.52 1265.04 223.374V223.277C1265.04 223.132 1264.9 222.986 1264.76 222.986V222.549C1264.9 222.501 1264.99 222.404 1264.99 222.258V222.113C1264.99 221.967 1264.9 221.821 1264.72 221.821V221.385C1264.86 221.385 1264.99 221.239 1264.99 221.094V220.948C1264.99 220.802 1264.86 220.657 1264.72 220.657V220.075H1265.26V219.541H1264.72H1264.22V217.357H1264.45V216.824H1264.22V216.193V216.096V215.465C1264.31 215.368 1264.4 215.271 1264.45 215.125H1264.9C1265.17 215.125 1265.4 214.834 1265.4 214.446V214.349C1265.4 213.961 1265.17 213.67 1264.9 213.67H1264.45C1264.4 213.524 1264.31 213.427 1264.22 213.33V212.699C1264.22 212.311 1263.99 212.02 1263.72 212.02H1263.63C1263.36 212.02 1263.13 212.311 1263.13 212.699V213.184C1263.04 213.281 1262.95 213.378 1262.91 213.524H1262.45C1262.18 213.524 1261.96 213.815 1261.96 214.203V214.3C1261.96 214.689 1262.18 214.98 1262.45 214.98H1262.91C1262.95 215.125 1263.04 215.222 1263.13 215.319V215.95V216.047V216.678H1262.91V217.212H1262.77V219.395H1262.32H1261.82V219.929H1262.27L1262.23 220.511H1262.14C1262 220.511 1261.86 220.657 1261.86 220.802V220.948C1261.86 221.094 1262 221.239 1262.14 221.239H1262.18V221.676C1262.05 221.676 1261.91 221.821 1261.91 221.967V222.113C1261.91 222.258 1262.05 222.404 1262.18 222.404V222.84H1262.14C1261.96 222.84 1261.86 222.986 1261.86 223.132V223.229C1261.86 223.423 1262 223.52 1262.14 223.52V223.957C1262 223.957 1261.86 224.102 1261.86 224.248V224.345C1261.86 224.49 1261.96 224.636 1262.09 224.636V225.073C1261.96 225.073 1261.82 225.218 1261.82 225.364V225.461C1261.82 225.606 1261.91 225.752 1262.05 225.752V226.189C1261.91 226.189 1261.77 226.334 1261.77 226.528V226.625C1261.77 226.771 1261.86 226.916 1262 226.916V227.208H1261.77V237.155H1261.32V238.271V239.436V241.522V242.687V246.666H1260.91V252.585C1252.17 260.592 1246.23 276.508 1246.23 294.85V296.257L1245.01 300.527V299.993H1244.6V289.706H1244.38V289.415C1244.51 289.366 1244.6 289.269 1244.6 289.075V288.978C1244.6 288.784 1244.51 288.687 1244.33 288.639V288.153C1244.47 288.105 1244.51 288.008 1244.51 287.862V287.765C1244.51 287.62 1244.42 287.474 1244.29 287.474V286.989C1244.42 286.94 1244.47 286.843 1244.47 286.698V286.6C1244.47 286.455 1244.38 286.309 1244.24 286.309V285.824C1244.38 285.824 1244.47 285.679 1244.47 285.533V285.484C1244.47 285.29 1244.33 285.145 1244.2 285.145V284.66C1244.33 284.611 1244.42 284.514 1244.42 284.368V284.223C1244.42 284.077 1244.33 283.932 1244.2 283.932V283.446C1244.33 283.446 1244.47 283.301 1244.47 283.155V283.01C1244.47 282.816 1244.33 282.719 1244.2 282.719V282.136H1244.69V281.554H1244.2H1243.74V279.273H1243.97V278.691H1243.74V278.06V277.963V277.284C1243.83 277.187 1243.92 277.09 1243.97 276.944H1244.38C1244.6 276.944 1244.83 276.653 1244.83 276.265V276.168C1244.83 275.78 1244.65 275.489 1244.38 275.489H1243.97C1243.97 275.478 1243.96 275.468 1243.96 275.459C1243.96 275.45 1243.95 275.441 1243.95 275.433C1243.95 275.426 1243.94 275.419 1243.94 275.412C1243.94 275.404 1243.93 275.397 1243.93 275.389C1243.92 275.38 1243.92 275.371 1243.91 275.362C1243.91 275.351 1243.9 275.341 1243.89 275.332C1243.85 275.264 1243.8 275.206 1243.74 275.149V274.47C1243.74 274.081 1243.56 273.79 1243.29 273.79H1243.2C1242.97 273.79 1242.75 274.081 1242.75 274.47V275.149C1242.65 275.246 1242.56 275.343 1242.52 275.489H1242.11C1241.88 275.489 1241.66 275.78 1241.66 276.168V276.265C1241.66 276.653 1241.84 276.944 1242.11 276.944H1242.52C1242.56 277.09 1242.65 277.187 1242.75 277.284V277.963V278.06V278.691H1242.52V279.273H1242.75V281.554H1242.34H1241.88V282.136H1242.34L1242.29 282.719H1242.25C1242.11 282.719 1241.98 282.864 1241.98 283.01V283.155C1241.98 283.349 1242.11 283.446 1242.25 283.446H1242.29V283.883C1242.16 283.883 1242.02 284.029 1242.02 284.174V284.32C1242.02 284.465 1242.11 284.611 1242.25 284.611V285.096H1242.2C1242.07 285.096 1241.93 285.242 1241.93 285.436V285.533C1241.93 285.727 1242.07 285.873 1242.2 285.873V286.358C1242.07 286.358 1241.93 286.503 1241.93 286.698V286.795C1241.93 286.94 1242.02 287.086 1242.16 287.086V287.571C1242.02 287.571 1241.93 287.717 1241.93 287.911V288.008C1241.93 288.153 1242.02 288.299 1242.16 288.299V288.784C1242.02 288.784 1241.88 288.93 1241.88 289.124V289.221C1241.88 289.366 1241.98 289.512 1242.11 289.56V289.852H1241.88V300.139H1241.48V310.134H1240.89V324.983H1240.21V346.042L1239.39 352.641V395.827L1238.4 402.281V409.026H1238.35C1238.21 409.026 1238.08 409.171 1238.08 409.317V409.705C1238.08 409.85 1238.21 409.996 1238.35 409.996H1238.4V410.675L1236.54 422.467V430.621H1229.13V249.663H1217.26V156.123H1190.56V138.27V110.866L1184.98 104.045C1184.9 101.085 1184.82 98.4184 1184.76 96.1886L1184.76 96.1663L1184.75 95.976L1184.75 95.9378C1184.64 91.9669 1184.57 89.4426 1184.57 89.2164C1184.57 87.7929 1182.55 86.6659 1180.06 86.6659H1137.75C1135.26 86.6659 1133.24 87.7929 1133.24 89.2164C1133.24 89.2601 1133.24 89.3732 1133.23 89.5514C1133.23 89.722 1133.22 89.9522 1133.21 90.2381L1133.2 90.7847C1133.12 93.3341 1132.96 98.742 1132.82 105.469L1128.43 110.807V138.21V183.171H1116.51V222.259H1102.92V304.529H1096.81V364.793H1087.37V430.621H908.992V231.74H900.618V228.655H896.361V221.564H895.773V221.247H888.631V220.44H887.314V219.373H883.758V220.44H874.291V221.247H863.424V221.564H863.032V228.655H861.66V234.507H854.826V430.621H784.561V390.521V389.316V385.469V384.264V380.418V379.212V375.366V374.16V370.314V369.108V365.262V364.056V360.21V359.004V355.158V353.952V350.106V348.9V345.054V343.848V340.002V338.796V334.95V333.744V329.898V328.692V324.846V323.64V319.794V318.589V313.91V312.704V308.025V306.82V302.141V300.935V297.089V295.883V291.205V289.999V285.32V284.115V279.12V277.398V274.556V266.232V260.663H792.341L800.66 254.549H778.088V254.521V238.331H725.903V254.521H703.16L711.479 260.635H719.259V266.203V274.527V277.369V279.091V284.086V285.292V289.97V291.176V295.855V297.06V300.907V302.112V306.791V307.997V312.675V313.881V318.56V319.765V323.612V324.817V328.664V329.869V333.716V334.921V338.768V339.973V343.82V345.025V348.871V350.077V353.923V355.129V358.975V360.181V364.027V365.262V369.108V370.314V374.16V375.366V379.212V380.418V384.264V385.469V389.316V390.521V430.621H716.702V397.52H709.87V388.375H691.456V397.52H663.836V201.711H658.712V178.332H640.298V64.9995H593.223V90.6509H537.954L558.423 103.362V397.52H550.258V430.621H491.237V201.905H477.591V154.374H411.315V201.905H409.953V430.621H370.157V427.101V425.777V421.806V420.482V416.511V415.216V411.245V409.921V405.95V404.626V400.655V399.331V395.389V394.065V390.094V388.77V384.799V383.475V379.504V378.181V374.238V372.914V368.943V367.62V363.648V362.325V358.354V357.03V353.087V351.764V347.793V346.469V342.498V341.174V337.203V335.879V331.937V330.613V326.642V325.318V321.347V320.023V316.052V314.728V310.786V309.462V305.491V304.167V300.196V298.873V294.901V293.578V289.635V288.312V284.34V283.017V279.046V277.722V273.751V272.427V268.485V267.161V263.19V261.866V257.895V256.571V252.6V251.276V247.334V246.01V242.039V240.715V236.744V235.42V231.449V230.126V226.183V224.859V220.888V219.565V215.593V214.27V210.299V208.975V204.658V170.357H360.678H347.665H341.087H338.186H333.446V188.342H323.191V116.228H321.525V111.825H319.945V75.6534V63.3083H309.058V56.5746V51.3372V44.6036V39.3662V32.6325V27.3664V20.6327V13.9566V13.1221H308.225V11.2516V10.4171V9.49625V8.66172V7.74088V6.90636V5.95673V5.12222V4.20137V3.36685V2.446V1.61149V0H307.479H306.588V1.61149V2.446V3.36685V4.20137V5.12222V5.95673V6.90636V7.74088V8.66172V9.49625V10.4171V11.2516V13.1221H305.755V13.9566V20.6327V27.3664V32.6325V39.3662V44.6036V51.3372V56.5746V63.3083H295.127V111.825H293.547V116.228H292.111V188.342H284.786V136.573H280.017H277.116H270.538H257.525H257.066H255.859H255.227H254.021H253.389H252.182H251.55H250.344H249.712H248.534H248.046V170.875V175.22V176.544V180.515V181.839V185.781V187.105V191.076V192.4V196.371V197.694V201.666V202.961V206.932V208.255V212.227V213.55V217.521V218.845V222.816V224.111V228.082V229.406V233.377V234.701V238.672V239.996V243.967V245.262V249.233V250.557V254.528V255.852V259.823V261.147V265.089V266.413V270.384V271.708V275.679V277.002V280.974V282.297V286.24V287.563V291.535V292.858V296.829V298.153V302.124V303.448V307.39V308.714V312.685V314.009V317.98V319.304V323.275V324.599V328.541V329.865V333.836V335.16V339.131V340.455V344.426V345.749V349.692V351.016V354.987V356.31V360.282V361.605V365.576V366.9V370.843V372.166V376.137V377.461V381.432V382.756V386.727V388.051V391.993V393.317V397.288V398.612V402.583V403.907V407.878V409.202V413.144V414.468V418.439V419.763V423.734V425.057V429.029V430.352V430.621ZM720.877 266.203H722.24L720.877 269.992V266.203ZM783.113 269.963L781.75 266.174H783.113V269.963Z" fill="url(#paint0_linear_214_496)"/>
<defs>
<linearGradient id="paint0_linear_214_496" x1="1393.78" y1="392.705" x2="1393.78" y2="571.453" gradientUnits="userSpaceOnUse">
<stop stop-color="#96B7D6"/>
<stop offset="1" stop-color="#C9DCE9"/>
</linearGradient>
</defs>
</svg>
