<svg width="1437" height="630" viewBox="0 0 1437 630" fill="none" xmlns="http://www.w3.org/2000/svg">
<path fill-rule="evenodd" clip-rule="evenodd" d="M1021.79 204.414H1012.29V198.676V194.113H1011.44V194.079H1016.49L1014.73 188.442H979.634V188.409H1014.73V186.194H1002.85C1002.85 186.194 1002.85 186.16 1002.88 186.16C1002.95 186.06 1003.05 185.926 1003.09 185.791C1003.16 185.624 1003.19 185.456 1003.19 185.255C1003.19 184.416 1002.51 183.711 1001.66 183.711C1000.81 183.711 1000.13 184.416 1000.13 185.255C1000.13 185.389 1000.17 185.523 1000.2 185.657C1000.2 185.677 1000.2 185.697 1000.21 185.717C1000.21 185.731 1000.22 185.744 1000.24 185.758C1000.3 185.926 1000.37 186.06 1000.47 186.194H987.475C987.475 186.194 987.475 186.16 987.509 186.16L987.538 186.117C987.603 186.023 987.683 185.907 987.712 185.791C987.78 185.624 987.814 185.456 987.814 185.255C987.814 184.416 987.135 183.711 986.287 183.711C985.438 183.711 984.76 184.416 984.76 185.255C984.76 185.389 984.793 185.523 984.827 185.657C984.827 185.691 984.827 185.724 984.861 185.758C984.929 185.926 984.997 186.06 985.099 186.194H979.567L979.533 185.523L979.804 185.758L979.057 170.994L999.422 166.699V165.122H978.82L978.65 161.197L978.548 158.613L997.453 154.318V152.741H983.504C983.538 152.724 983.555 152.699 983.572 152.674C983.589 152.649 983.606 152.624 983.64 152.607C983.877 152.439 984.081 152.238 984.25 151.969C984.273 151.936 984.295 151.906 984.318 151.878L984.332 151.861L984.352 151.835C984.386 151.793 984.42 151.751 984.454 151.701C984.624 151.365 984.726 150.996 984.76 150.594V150.527C984.76 149.084 983.606 147.943 982.18 147.943C980.755 147.943 979.601 149.117 979.601 150.527C979.601 150.963 979.736 151.365 979.906 151.701C979.94 151.802 980.008 151.869 980.076 151.936C980.245 152.204 980.483 152.406 980.721 152.607C980.74 152.626 980.76 152.657 980.787 152.687C980.806 152.707 980.828 152.727 980.856 152.741H978.379L978.141 146.131L994.636 141.937V140.36H989.443V135.931H988.663V140.393H977.904V140.226H977.971L977.768 133.75L992.837 129.623V128.046H986.728V121.067H986.219V128.046H981.433C981.569 127.811 981.671 127.576 981.671 127.274V127.24C981.671 126.402 980.992 125.697 980.144 125.697C979.295 125.697 978.616 126.402 978.616 127.24C978.616 127.542 978.718 127.811 978.888 128.046H977.496L977.259 121.436L991.785 117.242V115.664H986.728V110.631H986.219V115.664H977.021L976.783 109.155L991.073 104.894V103.317H989.477V100.901H988.968V94.66H988.561V100.901H988.052V103.317H986.728V98.2838H986.219V103.317H976.546L976.308 96.8745L990.462 92.5126V90.9355H984.658V88.8552H983.911V76.9437H983.13V88.8552H981.433V80.5675H980.653V88.8217H978.65V90.902H976.105V79.6616H975.12V68.9244V57.6169V47.7857L972.235 38.5585V29.5661H972.575V20.2047H972.235V10.1386H972.575V0.743656H972.235V0.039032H970.776H969.656V0.743656H969.316V1.78382V10.1051V20.1712V29.5661V38.592L966.431 47.8193V57.6504V68.958V79.6951H965.447V90.9355H964.463V76.9437H963.682V90.9355H951.09V92.5126L965.21 96.7403L965.074 100.465L965.108 100.498L965.006 103.317H957.2V98.8542H956.419V103.317H953.771V94.2573H952.991V103.317H950.445V104.894L964.734 109.054L964.565 113.081L964.599 113.114L964.497 115.664H958.421V110.631H957.912V115.664H949.733V117.242L964.293 121.335L964.056 128.012H948.68V129.589L956.928 131.804V137.978H956.419V140.393H956.113V133.951H955.604V140.393H954.111C954.382 139.991 954.552 139.521 954.552 139.018C954.552 137.575 953.398 136.434 951.973 136.434C950.547 136.434 949.393 137.608 949.393 139.018C949.393 139.521 949.597 139.991 949.834 140.393H946.882V141.97L963.377 146.064L963.207 150.795L963.241 150.829L963.173 152.775H958.659C958.998 152.506 959.202 152.104 959.202 151.634C959.202 150.795 958.523 150.09 957.675 150.09C956.826 150.09 956.147 150.761 956.147 151.634C956.147 152.104 956.351 152.506 956.69 152.775H944.064V154.352L962.868 158.512L962.969 158.613L962.732 165.156H962.019C962.189 164.921 962.291 164.653 962.291 164.351C962.291 163.512 961.612 162.807 960.763 162.807C959.915 162.807 959.236 163.512 959.236 164.351C959.236 164.653 959.338 164.921 959.508 165.156H952.685V160.123H952.176V165.156H950.853V162.74H950.343V156.499H949.936V162.74H949.427V165.156H949.122V158.714H948.612V165.156H942.13V166.733L962.562 170.927L961.985 186.228H947.798C948.035 185.657 948.205 185.02 948.205 184.349C948.205 181.765 946.101 179.651 943.521 179.651C940.942 179.651 938.837 181.765 938.837 184.349C938.837 185.02 938.973 185.657 939.245 186.228H936.937C936.801 184.617 935.511 183.376 933.882 183.376C932.253 183.376 930.963 184.651 930.827 186.228H926.856V188.442H931.54V188.476H926.856L925.091 194.113H930.352V194.146H929.3V198.709V204.481H919.797L918.032 210.118L924.752 216.224L938.396 228.572H938.26L943.555 233.236L956.86 245.282H956.792L956.758 247.899H955.163V249.442H956.724V249.677H955.163V251.221H956.69L956.487 270.011L955.363 353.718C946.798 354.045 937.964 354.253 928.861 354.328C917.093 354.424 905.331 354.192 893.632 353.674L859.786 330.453L832.967 348.552C809.6 345.689 786.937 341.931 765.485 337.664C746.399 330.255 729.495 321.68 714.908 312.838V137.574H697.414V133.686H692.749L681.812 117.143H669.329V115.39H666.745V114.083H664.696V92.1216H662.174V114.083H660.157V115.39H657.572V117.143H645.09L634.12 133.686H629.487V137.574H611.993V296.356C604.253 299.439 594.569 302.951 583.253 306.644V186.625H577.48V151.704H552.923V155.274H498.503V151.704H473.946V186.625H470.109V334.292C451.693 337.433 432.361 340.08 412.469 341.95V332.764V327.877V327.745V320.217V310.509H412.928V302.518H413.453V293.338H411.55L408.468 281.847H408.927V280.989H408.599C408.796 280.791 408.927 280.527 408.927 280.196C408.927 279.668 408.533 279.206 408.074 279.206C407.549 279.206 407.156 279.668 407.156 280.196C407.156 280.527 407.287 280.791 407.484 280.989H407.156V281.847H407.615L404.532 293.338H402.63V302.518H403.155V310.509H403.68V320.217H401.581V314.141H399.088V307.669H396.989V286.999H396.793V278.744H398.432V272.14H398.892V264.545H397.317L394.759 255.035H395.153V254.309H394.891C395.087 254.177 395.153 253.913 395.153 253.715C395.153 253.252 394.825 252.856 394.431 252.856C394.038 252.856 393.71 253.252 393.71 253.715C393.71 253.979 393.841 254.177 393.972 254.309H393.71V255.035H394.103L392.005 262.762V251.931H389.709L386.757 218.119L389.578 216.534V209.534H388.66L385.905 207.949L375.41 86.3693V73.0293H379.477V71.6425H375.41V65.0385H374.033V71.6425H369.967V73.0293H374.033V86.3033L363.539 207.949L360.784 209.534H359.866V216.534L362.686 218.119L359.735 251.931H358.554V262.168L356.652 255.101H357.045V254.375H356.783C356.98 254.243 357.045 253.979 357.045 253.781C357.045 253.318 356.717 252.922 356.324 252.922C355.93 252.922 355.602 253.318 355.602 253.781C355.602 254.045 355.733 254.243 355.865 254.375H355.602V255.101H355.996L353.438 264.611H351.864V272.206H352.323V278.81H353.963V287.065V307.735H351.864V314.207H349.699V320.283H347.863V310.575H348.191V302.584H348.715V293.404H346.813L343.665 281.914H344.124V281.055H343.796C343.993 280.857 344.124 280.593 344.124 280.263C344.124 279.734 343.731 279.272 343.206 279.272C342.747 279.272 342.288 279.734 342.288 280.263C342.288 280.593 342.419 280.857 342.616 281.055H342.288V281.914H342.747L339.598 293.404H337.696V302.584H338.221V310.575H338.615V320.283V327.811V327.943V332.83V344.826C301.236 344.082 266.278 340.395 234.917 335.201V332.83V327.943V327.811V320.283V310.575H235.442V302.584H235.967V293.404H234.065L230.916 281.914H231.375V281.055H231.047C231.244 280.857 231.375 280.593 231.375 280.263C231.375 279.734 230.982 279.272 230.457 279.272C229.998 279.272 229.539 279.734 229.539 280.263C229.539 280.593 229.67 280.857 229.867 281.055H229.539V281.914H229.998L226.915 293.404H225.013V302.584H225.538V310.575H226.063V320.283H223.964V314.207H221.471V307.735H219.372V287.065H219.176V278.81H220.815V272.206H221.275V264.611H219.7L217.142 255.101H217.536V254.375H217.274C217.47 254.243 217.536 253.979 217.536 253.781C217.536 253.318 217.208 252.922 216.814 252.922C216.421 252.922 216.027 253.318 216.027 253.781C216.027 254.045 216.158 254.243 216.29 254.375H216.027V255.101H216.421L214.322 262.828V251.601H213.076L210.19 218.185L213.01 216.6V209.6H212.092L209.337 208.015L198.843 86.4354V73.0954H202.909V71.7085H198.843V65.1045H197.4V71.7085H193.333V73.0954H197.4V86.3693L186.905 208.015L184.151 209.6H183.232V216.6L186.053 218.185L183.167 251.601H180.871V262.168L178.969 255.101H179.363V254.375H179.1C179.297 254.243 179.363 253.979 179.363 253.781C179.363 253.318 179.035 252.922 178.641 252.922C178.248 252.922 177.92 253.318 177.92 253.781C177.92 254.045 178.051 254.243 178.182 254.375H177.92V255.101H178.313L175.755 264.611H174.181V272.206H174.64V278.81H176.28V287.065V307.735H174.181V314.207H172.017V320.283H170.18V310.575H170.574V302.584H171.164V293.404H169.262L166.114 281.914H166.573V281.055H166.245C166.442 280.857 166.573 280.593 166.573 280.263C166.573 279.734 166.179 279.272 165.72 279.272C165.195 279.272 164.802 279.734 164.802 280.263C164.802 280.593 164.933 280.857 165.13 281.055H164.802V281.914H165.261L162.178 293.404H160.276V302.584H160.801V310.575H161.194V318.947C143.647 314.048 128.554 309.022 116.372 304.423V249.905H114.728V240.654H108.721V237.862V235.81V230.663H108.889L59.2624 211.287L10.139 230.663V235.81V237.862V240.654H4.0992V249.905H2.6228V576.909H-2.7937V589.096V771.907H1433.96V576.909H1412.95V442.712L1412.84 442.441L1411.92 439.191V438.623H1411.76L1410.48 434.235V434.208L1406.58 420.721V420.531H1406.53L1404.8 414.465L1404.77 414.492V414.465H1391.28V412.921H1389.55V412.19H1384.4V409.048H1383.1V406.231H1381.83V403.415H1379.26V402.927H1378.58V373.867H1378.44V372.757H1378.23V372.242V370.211H1377.9V367.638H1377.5V365.661H1376.36V367.638H1375.95V370.211H1375.63V372.242V372.757H1375.41V373.867H1375.22V402.927H1374.57V403.415H1372V406.231H1370.7V409.048H1369.4V412.19H1364.25V412.921H1362.55V414.465H1349.03L1340.99 442.441L1340.91 442.712V576.909H1192.66L1191.08 329.64C1238.7 347.028 1323.03 366.227 1435.34 362.098L1435.3 361.099C1322.82 365.234 1238.47 345.938 1191.07 328.573L1191.05 325.171C1204.64 329.672 1221.82 334.311 1242.76 338.56C1288.67 347.877 1352.69 355.328 1436.67 355.328V354.328C1352.74 354.328 1288.79 346.882 1242.96 337.58C1221.88 333.301 1204.63 328.631 1191.05 324.115L1191.04 323.424L1190.98 314.03V313.963H1196.87V313.93V308.347V307.946V307.612V307.278V305.773V305.439V305.138V305.105H1190.91L1190.88 300.425V296.814H1196.87L1201.05 288.323L1201.58 286.919L1204 280.534L1205.11 277.592V277.559V271.575V271.542V269.068V269.034H1192.12V266.828V264.822H1198.6V264.789V262.783H1198.63V262.75V260.309V260.276H1198.6H1186.36L1186.17 247.406L1185.97 233.599C1187.77 233.466 1189.21 231.961 1189.21 230.089C1189.21 228.15 1187.7 226.613 1185.87 226.546L1185.38 192.749H1185.74V192.715L1185.51 178.207H1185.15L1184.89 160.289L1184.76 148.288H1184.73L1184.69 146.115L1184.3 119.204L1184.27 116.496H1182.04V116.53H1179.82L1179.36 148.321H1179.33L1179.16 161.626L1178.93 178.24H1178.57L1178.38 192.749H1178.74L1178.31 222.4C1176.97 222.568 1175.92 223.671 1175.92 225.075C1175.92 226.445 1176.94 227.549 1178.25 227.749L1178.12 237.043L1177.85 253.356L1177.76 260.309H1165.52H1165.48V262.817H1165.52V264.856H1172V266.862V269.135H1159.07V271.608V277.626L1162.74 285.749L1163.91 288.357L1168.1 296.848H1174.12V297.516L1174.09 305.205H1167.35V305.84V307.344V307.98V308.381V313.997H1174.03V315.535L1174.01 317.79C1169.1 315.734 1165.03 313.775 1161.78 311.976V308.786H1159.07V303.37H1153.65V308.786H1150.95V313.647C1150.61 313.831 1150.27 314.016 1149.92 314.203H1148.24V315.082C1143.45 317.544 1137.54 320.212 1130.49 322.958V320.069V317.757V314.642V311.962V308.847V308.479V307.507V306.871V305.9V305.263V304.292V303.655V302.684V302.081V301.076V300.473V299.468V298.865V297.86V297.257V296.286V295.65V294.678V294.042V293.07V292.434V292.266V291.462V290.826V289.855V289.218V288.247V287.61V286.639V286.371H1125.53L1125.49 286.338V285.333V284.73V283.758V283.122V282.15V281.581H1123.12V280.141V279.839H1125.49V278.767V277.695H1123.12V274.915H1118.75V273.609H1113.02V272.269V267.043H1108.61V266.943V266.072V263.727V262.856V260.512V259.641V257.698H1105.98L1100.03 253.377V251.869H1101.01V250.965H1100.03V250.262H1101.01V249.357H1100.03V248.654H1101.01V247.749H1100.03V247.046H1101.01V246.142H1100.03V245.438H1101.01V244.534H1100.03V243.83H1101.01V242.926H1100.03V242.222H1101.01V241.318H1100.03V240.615H1101.01V239.744H1100.03V238.37H1098.05V239.744H1097.06V240.615H1098.05V241.318H1097.06V242.222H1098.05V242.926H1097.06V243.83H1098.05V244.534H1097.06V245.438H1098.05V246.142H1097.06V247.046H1098.05V247.749H1097.06V248.654H1098.05V249.357H1097.06V250.262H1098.05V250.965H1097.06V251.869H1098.05V253.377L1092.1 257.698H1089.46V259.641V260.512V262.856V263.727V266.072V266.943V267.043H1085.06V273.609H1079.33V274.915H1074.95V277.695H1072.58V278.767V279.839H1074.95V281.581H1072.58V282.15V283.122V283.758V284.73V285.333V286.338V286.371H1067.58V286.639V287.61V288.213V289.218V289.821V290.826V291.429V292.434V293.037V294.042V294.645V295.616V296.253V297.224V297.86V298.832V299.468V300.44V301.076V302.047V302.65V303.655V304.258V305.263V305.866V306.871V307.474V308.479V308.847V311.962V314.642V317.757V320.069V323.184V324.959V327.505V330.62V333.903V337.018V340.334V340.855C1044.64 345.575 1017.53 349.568 986.219 351.96L985.574 304.47L985.438 294.236L984.861 251.221H986.932V249.677H984.827V249.442H986.932V247.899H984.827L984.794 245.282L998.098 233.236L1002.14 229.579L1023.66 210.118L1021.79 204.414ZM1173.99 321.737L1174 318.87C1170.4 317.368 1167.23 315.915 1164.49 314.534V316.911H1163.76C1166.77 318.446 1170.18 320.064 1173.99 321.737ZM1150.12 316.911H1148.24V316.206C1143.42 318.663 1137.5 321.311 1130.49 324.031V324.161C1138.06 321.596 1144.63 319.146 1150.12 316.911ZM1130.49 325.217C1139.27 322.247 1146.73 319.427 1152.74 316.911H1153.65V576.909H1136.88V553.205V545.635H1135.53V507.181H1133.82L1133.32 506.645V503.262H1130.49V500.783V497.467V494.352V491.036V487.92V484.638V481.523V478.206V475.091V471.775V468.693V465.377V462.262V458.946V455.831V452.548V449.433V446.117V443.001V439.719V436.604V433.287V430.172V426.856V423.741V420.458V417.343V414.027V410.912V407.629V404.514V401.198V398.082V394.766V391.684V388.368V385.253V381.937V378.822V375.539V372.424V369.108V365.993V362.676V359.595V356.279V353.163V349.847V346.765V343.449V340.334V337.018V333.903V330.855V330.62V327.505V325.217ZM1054.1 344.469C1034.21 348.041 1011.6 351.026 986.233 352.962L986.266 355.403C1010.84 352.496 1033.59 348.688 1054.1 344.469ZM986.28 356.408C1016.36 352.854 1043.71 347.951 1067.58 342.591V343.449V346.765V349.847V353.163V356.279V359.595V362.676V365.993V369.108V372.424V375.539V378.822V381.937V385.253V388.368V391.684V394.766V398.082V401.198V404.514V407.629V410.912V414.027V417.343V420.458V423.741V426.856V430.172V433.287V436.604V439.719V443.001V446.117V449.433V452.548V455.831V458.946V462.262V465.377V468.693V471.775V475.091V478.206V481.523V484.638V487.92V491.036V494.352V497.467V500.783V503.262H1064.75V507.181H1062.35V545.635H1059.39V576.909H989.276L986.28 356.408ZM955.299 358.477L955.35 354.719C946.79 355.046 937.964 355.253 928.869 355.328C917.354 355.422 905.844 355.202 894.393 354.708V360.777H913.346C927.744 360.356 941.748 359.566 955.299 358.477ZM917.527 361.645C930.453 361.201 943.053 360.463 955.286 359.481L952.367 576.909H902.028V388.287L917.527 361.645ZM825.179 354.757V353.808L831.705 349.404C810.804 346.814 790.474 343.514 771.078 339.778C787.586 345.851 805.647 351.025 825.179 354.757ZM765.204 338.628C783.286 345.642 803.316 351.61 825.179 355.775V360.777H801.574L817.578 388.287V576.909H714.908V327.247C730.66 331.244 747.52 335.109 765.204 338.628ZM759.988 336.554C743.158 329.7 728.099 321.967 714.908 314.006V326.216C729.101 329.82 744.198 333.319 759.988 336.554ZM611.993 311.568V297.432C604.226 300.515 594.544 304.017 583.253 307.695V327.493C585.204 326.566 587.115 325.632 588.984 324.691C597.483 320.414 605.137 316.005 611.993 311.568ZM583.253 328.6C585.36 327.603 587.42 326.597 589.434 325.584C597.737 321.406 605.243 317.098 611.993 312.758V576.909H587.59V575.427H583.253V328.6ZM470.109 359.701V335.306C451.691 338.443 432.359 341.087 412.469 342.955V365.008C433.168 364.074 452.355 362.244 470.109 359.701ZM412.469 366.009C433.161 365.076 452.349 363.25 470.109 360.711V575.427H465.772V576.909H416.994V491.062V486.241V486.109V478.646V478.58H412.469V478.514V388.37V383.483V383.351V375.822V366.009ZM338.615 364.761V345.826C301.245 345.083 266.288 341.403 234.917 336.215V351.419C246.832 353.936 259.422 356.221 272.662 358.192L288.176 346.765L309.744 362.664C319.103 363.535 328.729 364.242 338.615 364.761ZM311.301 363.811C320.17 364.616 329.277 365.273 338.615 365.762V375.888V383.417V383.549V383.945L311.301 363.811ZM271.521 359.032C258.701 357.104 246.493 354.882 234.917 352.441V375.888V383.417V383.549V385.992L271.521 359.032ZM161.194 330.477V327.943V327.811V320.283V319.985C143.674 315.102 128.584 310.088 116.372 305.492V310.529C127.768 316.77 142.787 323.697 161.194 330.477ZM116.372 311.669C127.827 317.906 142.845 324.801 161.194 331.543V332.83V375.888V383.417V383.549V388.436V478.58H156.997V478.646V486.109V486.241V491.062V576.909H116.372V311.669ZM1161.59 316.911C1165.11 318.768 1169.24 320.756 1173.98 322.826L1172.37 576.909H1159.07V316.911H1161.59ZM1161.78 313.117V314.203H1163.84C1163.12 313.835 1162.43 313.473 1161.78 313.117ZM943.453 194.079L941.994 194.113V194.079H943.453ZM989.681 194.079H1003.46V194.113H1002.34H999.388H997.929H994.976H993.516H990.563L989.681 194.079ZM1006.92 194.079H1007.91V194.113L1006.92 194.079ZM986.253 194.079H985.506H982.553H981.094H978.141H976.682H973.729H972.507V194.046L986.253 194.079ZM969.011 194.079H968.502V194.046L969.011 194.079ZM965.549 194.079H964.09V194.046L965.549 194.079ZM961.103 194.079H959.643V194.046L961.103 194.079ZM956.69 194.079H955.197V194.046L956.69 194.079ZM951.769 194.079H950.853V194.046L951.769 194.079ZM947.9 194.079H946.44V194.046L947.9 194.079ZM939.041 194.079H937.989V194.046L939.041 194.079ZM957.301 137.944V131.904L963.818 133.649L963.648 138.347H963.682L963.614 140.393H959.677V135.36H959.168V140.393H957.844V137.944H957.301ZM970.742 188.409H976.851L976.885 188.442L970.742 188.409ZM945.66 188.409H970.742L945.626 188.442C945.626 188.442 945.629 188.442 945.633 188.441C945.638 188.44 945.643 188.438 945.648 188.434C945.655 188.429 945.66 188.421 945.66 188.409ZM936.088 188.409H941.146C941.146 188.409 941.179 188.409 941.179 188.442L936.088 188.409ZM933.746 194.079H934.561V194.113L933.746 194.079ZM97.8834 230.663L59.2624 216.804L21.0441 230.663H97.8834ZM16.5478 240.654H102.313V237.862H16.5478V240.654ZM1173.57 305.807V307.311H1172.52V305.807H1173.57ZM1171.47 305.807V307.311H1170.43V305.807H1171.47ZM1168.33 305.807H1169.38V307.311H1168.33V305.807ZM1168.33 308.347V307.946H1169.38V308.347H1168.33ZM1170.43 308.347V307.946H1171.47V308.347H1170.43ZM1172.52 308.347V307.946H1173.57V308.347H1172.52ZM534.572 186.625H552.923V160.796L534.572 186.625ZM518.39 186.658L498.47 161.638V186.658H518.39Z" fill="url(#paint0_linear_214_494)"/>
<defs>
<linearGradient id="paint0_linear_214_494" x1="716.94" y1="0.039032" x2="716.94" y2="771.907" gradientUnits="userSpaceOnUse">
<stop stop-color="#0C3C80"/>
<stop offset="1" stop-color="#2A63AB"/>
</linearGradient>
</defs>
</svg>
