<svg width="1440" height="723" viewBox="0 0 1440 723" fill="none" xmlns="http://www.w3.org/2000/svg">
<path fill-rule="evenodd" clip-rule="evenodd" d="M833.808 124.538H835.374H844.701V126.489V128.719V137.187V139.347V145.166V147.327V155.794V157.954V166.422V168.582V174.401V176.562V185.029V187.19V195.657V197.818V203.637V205.797V214.265V216.425V224.892V227.053V235.52V237.681V243.5V245.66V256.811V258.936V264.756V266.916V272.735V274.896V286.046V288.207V294.026V296.186V302.075V304.236V315.386V317.547V323.366V325.526V331.345V333.506V344.656V346.817V352.636V354.796V360.615V362.776V371.243V373.404V379.223V381.383V389.851V392.011V400.479V402.639V408.458V410.619V419.086V421.247V429.714V431.874V437.694V439.854V448.321V450.482V458.949V461.11V466.929V469.089V477.557V479.717V488.185V488.557L850.693 485.195H890.392V61.3331H926.366V27.2889H939.537V8.12494H999.03V27.2889H1012.2V61.3331H1048.17V485.195H1087.84L1102.66 493.5V469.267V467.416V461.511V459.66V453.755V451.905V446V444.149V438.244V436.393V430.488V428.593V422.688V420.837V414.932V413.081V407.176V405.326V399.421V397.57V391.665V389.814V383.909V382.058V376.153V374.302V368.397V366.546V360.641V358.791V351.608V349.757V342.574V340.723V333.54V331.689V325.784V323.934V316.751V314.9V307.717V305.866V298.198V295.554V291.192V278.412V269.863H1090.56L1077.62 260.477H1112.99V235.623H1194.17V260.477V260.521H1229.28L1216.34 269.907H1204.24V278.456V291.236V295.598V298.242V305.91V307.761V314.944V316.795V323.978V325.828V331.733V333.584V340.767V342.618V349.801V351.652V358.835V360.686V366.591V368.441V374.346V376.197V382.102V383.953V389.858V391.709V397.614V399.465V405.37V407.22V413.125V414.976V420.881V422.732V428.637V430.488V436.393V438.244V444.149V446V451.905V453.755V459.66V461.511V467.416V469.267V498H1250.95V139.315H1251.05H1253.31H1254.17H1255.38H1256.45H1257.31H1258.42V139.171V138.415V136.398V135.677V130.923V130.167V128.15V127.393H1261.89V122.855H1261.85V119.793L1269.57 103.982V103.946H1269.61L1269.68 103.801L1275.08 92.7439V88.962V85.8645V85.1441L1276.33 82.6949L1279.05 77.4002V77.3282H1279.08L1282.19 71.2412L1285.34 65.0821V65.0101H1285.37L1288.45 58.995V58.923H1288.49V54.3847H1288.45V51.4313V51.2872V50.6749H1288.49L1291.27 45.2722V45.2362L1294.42 39.1131V39.0411H1294.46L1300.57 27.1191H1300.6H1301.03V27.0831H1301.43L1301.46 27.1191L1310.97 45.6324H1311.01V45.6684H1311.04V45.7404L1313.55 50.6749H1313.65V51.2152V51.2872V51.4313V58.923L1316.76 65.0101V65.0461L1323.06 77.3282V77.3642L1327.06 85.1441V85.8645V88.962V92.7439L1329.28 97.2822V97.3182H1329.31V97.3542L1340.25 119.793V122.855V127.393H1343.61H1343.68H1343.72V139.315H1344.65H1345.51H1346.51H1347.79H1348.65H1350.98H1351.01H1351.16V438.432C1356.95 436.871 1363.04 436.038 1369.33 436.038C1406.76 436.038 1437.25 465.504 1439.01 502.5H1438V744H0V498H0.0906942V497.292V350.581V346.189V342.265V341.798V337.873V276.666H0.184443V269.377V262.836H-3V262.369V260.78V251.248H15.6378V244.24V237.699H14.5139V237.232V235.643V226.112H31.0911V217.608V211.067H28.7497V210.599V209.011V199.479H47.0129V192.564V186.023H45.5143V185.556V183.967V174.436H64.4331V166.68V160.139H63.59V159.671V158.083V148.551H81.3849V146.869V140.328H79.7928V139.861V138.272V126.872H110.044V138.272V139.861V140.328H108.452V146.869V152.476H108.545V148.551H126.34V158.083V159.671V160.139H125.497V166.68V173.782H125.966L125.872 174.342H144.416V183.874V185.462V185.93H142.917V192.471V199.386H161.181V208.918V210.506V210.973H158.839V217.515V226.018H175.416V235.549V237.138V237.605H174.293V244.146V251.155H192.93V260.686V262.275V262.742H190.87V277.6H202.764V269.097V262.555H200.423V262.088V260.5V250.968H218.686V244.053V237.512H217.187V237.045V235.456V225.925H236.106V218.169V211.627H235.263V211.16V209.572V200.04H253.058V196.676V190.135H250.623V189.668V188.079V178.548H253.058V178.454H268.324V168.829V162.288H266.357V161.821V160.232V150.701H286.4V154.999H286.493V154.906V146.963V140.422H285.089H284.714V139.954V138.366V128.834H285.089H302.883V114.911V109.024H301.572V108.557V106.968V97.4365H309.627V83.9803V79.1212H306.911V77.5325H307.566C307.847 69.1223 313.748 62.1139 321.615 60.6188V59.0302H323.207V58.1893H323.956L324.144 46.0413H324.986L325.174 58.1893H325.923V59.0302H327.515V60.5254C335.663 61.7402 341.938 68.842 342.313 77.5325H343.53V79.1212H340.814V83.9803V97.4365H349.337V106.968V108.557V109.024H348.026V114.911V128.834H365.821H366.196V138.366V139.954V140.422H365.821H364.416V146.963V154.906V154.999H364.51V150.701H384.552V160.232V161.821V162.288H382.586V168.829V178.454H397.852V178.548H400.287V188.079V189.668V190.135H397.852V196.676V200.04H415.646V209.572V211.16V211.627H414.803V218.169V225.925H433.722V235.456V237.045V237.512H432.224V244.053V250.968H450.487V260.5V262.088V262.555H448.145V276.385H459.946V269.097V262.555H456.762V262.088V260.5V250.968H475.399V243.96V237.418H474.276V236.951V235.363V225.831H490.853V217.328V210.786H488.511V210.319V208.731V199.199H506.774V192.284V185.743H505.276V185.276V183.687V174.156H524.195V166.4V159.858H523.352V159.391V157.803V148.271H541.147V146.589V140.048H539.554V139.581V137.992V126.592H569.806V137.992V139.581V140.048H568.213V146.589V152.196H568.307V148.271H586.102V157.803V159.391V159.858H585.259V166.4V173.501H585.727L585.634 174.062H604.178V183.594V185.182V185.649H602.679V192.191V199.106H620.942V208.637V210.226V210.693H618.601V217.234V225.738H635.178V235.269V236.858V237.325H634.054V243.866V250.875H633.961V251.435H652.411V260.967V262.555V263.023H650.351V498H725.535V176.806H747.322V175.238V171.649V169.941V166.352V164.645V161.056V159.348V155.759V154.052V150.463V148.755V145.166V143.459V132.726H764.932V128.754V126.593V124.642H775.791V123.423V121.262V118.091V115.931V113.979H777.148H779.306H779.793H781.951H785.118H787.276H790.443H792.601H795.768H797.926H801.093H801.441V104.327V87.8105V75.0571V58.5403V45.7869V29.2702V16.5167V0H803.738H806.835V16.4122V29.1656V45.6824V58.4358V74.9525V87.706V104.223V113.875H808.541H811.708H813.866H817.033H819.19H822.357H824.515H827.091H827.682H829.805H830.293H832.45H833.808V115.826V117.987V121.158V123.318V124.538ZM1107.3 278.412H1105.18V284.229L1107.3 278.412ZM1199.87 278.368L1201.99 284.185V278.368H1199.87ZM320.678 84.9148V84.8214C320.678 84.4476 320.772 84.0737 320.959 83.6999H324.518V97.1562H320.678V84.9148ZM312.436 84.9148V84.8214C312.436 84.4476 312.53 84.0737 312.624 83.6999H317.119C317.213 84.0737 317.307 84.4476 317.307 84.8214V84.9148V97.1562H312.53V84.9148H312.436ZM639.112 277.413L645.949 277.32V277.413H639.112ZM179.631 277.413L186.468 277.32V277.413H179.631ZM360.014 154.812H357.954V154.719H358.422H360.014V154.812ZM291.176 154.719H292.581V154.812H291.176V154.719Z" fill="url(#paint0_linear_214_495)"/>
<defs>
<linearGradient id="paint0_linear_214_495" x1="1369.36" y1="436.038" x2="1369.36" y2="502.5" gradientUnits="userSpaceOnUse">
<stop stop-color="#2A63AB"/>
<stop offset="1" stop-color="#2F6CA6"/>
</linearGradient>
</defs>
</svg>
